<svg id="Layer_1" xmlns="http://www.w3.org/2000/svg" viewBox="0 0 291 91">
    <style>.st0{fill:#ffa502}.st1{fill:#fff}</style>
    <path class="st0"
          d="M30.58 7.38c3.65 0 6.86.38 9.64 1.15 2.78.77 5.13 1.99 7.03 3.66 1.9 1.68 3.34 3.83 4.32 6.47s1.46 5.83 1.46 9.57c0 1.2-.03 2.53-.1 3.98-.07 1.45-.32 2.87-.76 4.27-.44 1.4-1.16 2.7-2.15 3.91-.99 1.2-2.42 2.17-4.27 2.88 1.86.81 3.28 1.82 4.27 3.03.99 1.2 1.72 2.6 2.17 4.17.46 1.58.72 3.33.81 5.25.08 1.92.12 4 .12 6.25 0 4.3-.41 8.01-1.22 11.13-.81 3.13-2.12 5.7-3.93 7.71-1.81 2.02-4.14 3.52-7.01 4.49-2.86.98-6.33 1.46-10.4 1.46s-7.54-.49-10.4-1.46c-2.86-.98-5.2-2.47-7.01-4.49-1.81-2.02-3.12-4.59-3.93-7.71C8.41 69.97 8 66.26 8 61.97c0-2.25.04-4.33.12-6.25.08-1.92.35-3.67.81-5.25.46-1.58 1.18-2.97 2.17-4.17.99-1.2 2.42-2.21 4.27-3.03-1.86-.72-3.28-1.68-4.27-2.88-.99-1.2-1.71-2.51-2.15-3.91-.44-1.4-.69-2.82-.76-4.27-.07-1.45-.1-2.77-.1-3.98 0-3.74.49-6.93 1.46-9.57s2.42-4.79 4.32-6.47c1.9-1.68 4.25-2.9 7.03-3.66 2.82-.77 6.03-1.15 9.68-1.15zm0 63.92c3.13 0 4.69-2.75 4.69-8.25 0-1.76-.02-3.42-.07-4.98s-.22-2.91-.51-4.05c-.29-1.14-.76-2.04-1.39-2.71-.63-.67-1.54-1-2.71-1s-2.08.33-2.71 1c-.63.67-1.1 1.57-1.39 2.71-.29 1.14-.46 2.49-.51 4.05s-.07 3.22-.07 4.98c-.02 5.5 1.54 8.25 4.67 8.25zm0-49.56c-.91 0-1.66.24-2.25.73s-1.05 1.1-1.39 1.83-.58 1.53-.71 2.39c-.13.86-.2 1.68-.2 2.47 0 5.31 1.51 7.96 4.54 7.96s4.54-2.65 4.54-7.96c0-.78-.07-1.6-.2-2.47-.13-.86-.37-1.66-.71-2.39s-.81-1.34-1.39-1.83-1.32-.73-2.23-.73zM82.53 87.07c-3.42 0-6.56-.38-9.42-1.15-2.86-.76-5.33-1.94-7.4-3.54-2.07-1.59-3.69-3.61-4.86-6.05S59.1 71 59.1 67.68V58.7h17.87v4.2c0 2.08.15 3.7.46 4.86.31 1.16.69 2.01 1.15 2.56.46.55.95.89 1.49 1 .54.11 1.03.17 1.49.17 1.76 0 2.95-.57 3.59-1.71.63-1.14.95-2.73.95-4.79V54.45c0-.98-.04-1.93-.12-2.86a8.75 8.75 0 0 0-.59-2.54c-.31-.76-.76-1.4-1.34-1.9-.59-.5-1.38-.81-2.39-.9-3.26 0-4.88 2.13-4.88 6.4H61V8.11h40.97v16.26H77.31l.05 10.35c1.73-1.59 4.56-2.39 8.5-2.39 2.51 0 4.71.37 6.62 1.1s3.55 1.72 4.93 2.95c1.38 1.24 2.54 2.69 3.47 4.35s1.66 3.43 2.2 5.3c.54 1.87.92 3.8 1.15 5.79.23 1.99.34 3.92.34 5.81 0 2.51-.11 4.97-.34 7.4-.23 2.43-.64 4.73-1.25 6.91-.6 2.18-1.43 4.2-2.49 6.05-1.06 1.86-2.4 3.45-4.03 4.79-1.63 1.33-3.58 2.38-5.86 3.15-2.29.76-4.97 1.14-8.07 1.14z"/>
    <path class="st1"
          d="M108.07 8.11h37.6V23.1h-10.21v62.8h-17.19V23.1h-10.21V8.11zM150.7 65.29V8.11h16.7v56c0 .85.01 1.51.02 2 .02.49.1 1.16.24 2 .15.85.36 1.51.63 2 .28.49.69.92 1.25 1.29.55.37 1.24.56 2.05.56.68 0 1.28-.11 1.78-.34.5-.23.9-.58 1.2-1.05.29-.47.53-.93.71-1.37.18-.44.3-1.03.37-1.76.06-.73.11-1.29.12-1.68.02-.39.02-.94.02-1.66V8.11h16.7v57.18c0 7.03-1.68 12.37-5.05 16.02-3.37 3.65-8.62 5.45-15.75 5.42-7.26.03-12.57-1.77-15.94-5.42-3.37-3.65-5.05-8.99-5.05-16.02zM200.75 85.9V8.11h23.29c6.09 0 10.6 1.34 13.53 4.03s4.39 7.27 4.39 13.75v3.37c0 .55-.06 1.42-.17 2.59-.11 1.17-.28 2.09-.49 2.76-.21.67-.53 1.49-.95 2.47-.42.98-.94 1.77-1.56 2.39-.62.62-1.4 1.22-2.34 1.81-.94.59-2.03 1.03-3.27 1.32 1.79.42 3.32 1.16 4.59 2.2 1.27 1.04 2.23 2.14 2.88 3.3.65 1.16 1.16 2.58 1.54 4.27.37 1.69.59 3.11.66 4.25.06 1.14.1 2.51.1 4.1 0 4.1-.29 7.62-.85 10.55-.57 2.93-1.55 5.54-2.95 7.84-1.4 2.29-3.34 4-5.83 5.13s-5.57 1.68-9.25 1.68h-23.32zm16.79-48.49h3.52c.85 0 1.54-.18 2.08-.54.54-.36.92-.87 1.15-1.54.23-.67.37-1.27.44-1.81.06-.54.1-1.18.1-1.93v-7.71c0-2.47-1.22-3.71-3.66-3.71h-3.61v17.24zm0 12.11v22.56c.78.07 1.35.1 1.71.1 4.46 0 6.69-1.92 6.69-5.76V56.7c0-2.47-.42-4.29-1.25-5.44-.83-1.16-2.16-1.73-3.98-1.73h-3.17zM248.99 85.9V8.11h34.38V23.2h-16.89v15.19h16.21v14.6h-16.21v17.72h18.02V85.9h-35.51z"/>
</svg>