<?xml version="1.0" standalone="no"?>
<!DOCTYPE svg PUBLIC "-//W3C//DTD SVG 1.1//EN" "http://www.w3.org/Graphics/SVG/1.1/DTD/svg11.dtd" >
<!--
2013-9-30: Created.
-->
<svg>
<metadata>
Created by iconfont
</metadata>
<defs>

<font id="iconfont" horiz-adv-x="1024" >
  <font-face
    font-family="iconfont"
    font-weight="500"
    font-stretch="normal"
    units-per-em="1024"
    ascent="896"
    descent="-128"
  />
    <missing-glyph />
    
    <glyph glyph-name="buy_icon_pitchon" unicode="&#58891;" d="M512-128C229.236364-128 0 101.236364 0 384S229.236364 896 512 896s512-229.236364 512-512-229.236364-512-512-512z m254.464 692.736L460.8 259.072l-177.664 177.664a38.4 38.4 0 0 1-54.272-54.272l204.8-204.8a38.4 38.4 0 0 1 54.272 0l332.8 332.8a38.4 38.4 0 0 1-54.272 54.272z"  horiz-adv-x="1024" />

    
    <glyph glyph-name="buy_icon_alipay" unicode="&#58892;" d="M253.672727 319.464727c-12.101818-9.728-25.041455-23.924364-28.811636-41.984-5.12-24.669091-1.047273-55.552 22.737454-79.755636 28.834909-29.370182 72.634182-37.399273 91.55491-38.795636 51.409455-3.723636 106.193455 21.783273 147.479272 50.850909 16.197818 11.403636 43.892364 34.350545 70.4 69.725091-59.368727 30.650182-133.492364 64.558545-212.712727 61.230545-40.471273-1.675636-69.445818-10.077091-90.647273-21.271273z m752.872728-135.540363A509.300364 509.300364 0 0 1 1047.272727 384C1047.272727 666.298182 817.617455 896 535.272727 896S23.272727 666.298182 23.272727 384c0-282.344727 229.655273-512 512-512 170.379636 0 321.489455 83.712 414.626909 212.130909a57419.938909 57419.938909 0 0 1-322.350545 159.301818c-42.635636-48.616727-105.658182-97.303273-176.849455-118.504727-44.706909-13.288727-85.038545-18.385455-127.185454-9.751273-41.751273 8.541091-72.494545 28.090182-90.414546 47.685818-9.122909 10.007273-19.618909 22.714182-27.205818 37.818182l1.210182-3.048727s-4.375273 7.517091-7.703273 19.502545a93.509818 93.509818 0 0 0-3.537454 31.185455 94.091636 94.091636 0 0 0 1.675636 24.064c4.189091 20.247273 12.8 43.799273 35.165091 65.698909 49.058909 48.034909 114.781091 50.618182 148.805818 50.408727 50.432-0.279273 138.053818-22.341818 211.828364-48.430545 20.433455 43.52 33.536 90.065455 42.007273 121.088H328.587636v33.186909h157.509819v66.327273h-190.696728v33.163636h190.696728v66.327273c0 9.076364 1.815273 16.570182 16.593454 16.570182h74.612364v-82.897455h207.290182v-33.163636h-207.290182v-66.327273h165.818182s-16.64-92.858182-68.724364-184.32c115.572364-41.285818 278.132364-104.866909 332.148364-126.091636z"  horiz-adv-x="1047" />

    
    <glyph glyph-name="buy_icon_qq" unicode="&#58893;" d="M512 893.556364C230.4 893.556364 2.443636 665.6 2.443636 384S230.4-125.556364 512-125.556364 1021.556364 102.4 1021.556364 384 793.6 893.556364 512 893.556364z m178.082909-610.932364s-12.334545-35.933091-35.933091-68.119273c0 0 41.821091-15.010909 38.074182-53.108363 0 0 1.629091-42.914909-89.041455-39.68 0 0-63.837091 5.352727-83.130181 33.256727h-16.64c-19.316364-27.904-83.130182-33.28-83.130182-33.28-90.647273-2.676364-89.041455 39.703273-89.041455 39.703273-3.746909 38.632727 38.074182 53.108364 38.074182 53.108363-23.04 32.186182-35.933091 68.119273-35.933091 68.119273-56.855273-94.952727-50.967273 13.405091-50.967273 13.405091 10.752 63.837091 55.272727 105.658182 55.272728 105.658182-6.446545 57.949091 17.152 68.142545 17.152 68.142545 4.817455 179.665455 153.949091 176.453818 157.160727 176.453818 3.211636 0 152.343273 3.234909 157.160727-176.453818 0 0 23.598545-10.193455 17.175273-68.119273 0 0 44.497455-41.844364 55.226182-105.658181 0 0 5.911273-108.357818-51.479273-13.428364z"  horiz-adv-x="1024" />

    
    <glyph glyph-name="buy_icon_wechat" unicode="&#58894;" d="M500.619636 896C230.4 896 10.938182 671.581091 10.938182 395.170909c0-276.386909 219.438545-500.805818 489.681454-500.805818 270.266182 0 489.681455 224.418909 489.681455 500.829091C990.301091 671.581091 770.885818 896 500.642909 896zM500.619636 896C230.4 896 10.938182 671.581091 10.938182 395.170909c0-276.386909 219.438545-500.805818 489.681454-500.805818 270.266182 0 489.681455 224.418909 489.681455 500.829091C990.301091 671.581091 770.885818 896 500.642909 896z m-90.018909-632.994909c-23.575273 0-46.964364 4.142545-68.654545 10.007273-1.861818 0-4.049455 1.861818-4.049455 1.861818l-52.829091-32c-13.637818-8.075636-23.575273-1.885091-19.549091 13.963636 0 0 13.661091 58.158545 11.799273 58.158546-50.967273 34.071273-74.379636 78.126545-74.379636 138.193454 4.049455 102.213818 90.042182 182.411636 207.662545 182.411637 107.869091 0 195.863273-67.956364 211.525818-158.324364h-9.774545c-107.869091 0-195.863273-76.241455-195.863273-170.216727 0-15.988364 1.861818-30.114909 5.888-44.055273h-11.776z m315.345455-78.289455l15.639273-32.186181c7.912727-13.963636 1.861818-19.968-11.776-12.055273 0 0-39.028364 24.087273-41.053091 22.039273-17.687273-6.050909-56.878545-12.055273-76.404364-12.055273-99.956364 0-182.225455 70.213818-182.225455 156.276363 0 86.039273 82.269091 156.439273 182.062546 156.439273s182.225455-70.213818 182.225454-156.276363c0-50.082909-25.390545-91.904-68.468363-122.181819zM306.757818 517.376c0-9.984 5.236364-19.269818 13.637818-24.273455 8.424727-4.980364 18.850909-4.980364 27.438546 0 8.401455 5.003636 13.614545 14.289455 13.614545 24.273455 0 9.984-5.213091 19.269818-13.614545 24.273455a26.996364 26.996364 0 0 1-27.438546 0 28.229818 28.229818 0 0 1-13.637818-24.273455z m348.672-150.248727c0-13.265455 10.612364-24.087273 23.575273-24.087273 12.939636 0 23.552 10.845091 23.552 24.087273 0 13.265455-10.612364 24.110545-23.552 24.110545-12.962909 0-23.575273-10.845091-23.575273-24.110545z m-129.396363 0c0-13.265455 10.589091-24.087273 23.552-24.087273 12.962909 0 23.575273 10.845091 23.575272 24.087273 0 13.265455-10.612364 24.110545-23.575272 24.110545-12.962909 0-23.552-10.845091-23.552-24.110545z m-54.69091 150.248727c0-15.476364 12.288-28.043636 27.438546-28.043636 15.127273 0 27.415273 12.567273 27.415273 28.043636 0 9.984-5.213091 19.269818-13.637819 24.273455a26.996364 26.996364 0 0 1-27.415272 0 27.694545 27.694545 0 0 1-13.800728-24.273455z"  horiz-adv-x="1024" />

    
    <glyph glyph-name="buy_icon_integral" unicode="&#58895;" d="M553.122909 394.286545c1.024 0 2.210909 0.093091 3.490909 0.279273l0.768 0.069818h132.468364c4.701091 0 6.144 1.419636 6.144 6.120728v139.450181c0 1.629091 0 4.608-6.702546 6.120728H555.054545c-2.722909 0-6.120727 0-6.120727-8.448V400.290909l-0.069818-0.465454c-0.442182-2.629818-0.139636-4.096 0.279273-4.608 0.395636-0.442182 1.629091-0.930909 3.956363-0.93091zM508.276364 855.179636C227.560727 855.179636 0 635.205818 0 363.845818c0-271.36 227.560727-491.287273 508.276364-491.287273s508.276364 219.950545 508.276363 491.287273c0 271.36-227.537455 491.333818-508.276363 491.333818z m-94.72-571.601454c-2.443636 3.234909-5.352727 6.958545-8.704 11.147636v-175.429818l-0.023273-0.256c-1.28-13.754182-8.820364-30.626909-37.585455-32.884364h-0.814545c-31.115636 2.257455-37.655273 19.409455-37.655273 33.373091v125.393455c-6.888727-17.687273-14.429091-32.721455-22.458182-44.753455l-0.139636-0.186182c-9.588364-13.172364-21.178182-19.851636-34.397091-19.851636a48.64 48.64 0 0 0-18.641454 4.049455l-0.512 0.256c-13.870545 7.563636-27.112727 22.644364-11.496728 51.595636l0.162909 0.279273c34.071273 54.830545 61.370182 119.226182 81.175273 191.488h-53.271273c-15.220364 0-33.373091 6.609455-33.373091 38.027636v0.418909c1.745455 22.807273 14.731636 35.84 37.608728 37.608727H328.773818v48.128c-5.794909-1.117091-13.056-2.234182-21.713454-3.304727l-0.698182-0.023273h-22.877091c-3.653818-0.465455-7.121455-0.698182-10.333091-0.698181-26.88 0-35.095273 15.522909-37.236364 28.532363l-0.093091 0.465455v0.442182c0 24.203636 13.568 39.749818 39.261091 44.893091l0.535273 0.09309h18.850909c55.109818 6.120727 97.047273 12.334545 124.602182 18.478546l0.418909 0.069818c3.118545 0.442182 6.144 0.674909 9.006546 0.674909 19.339636 0 32.791273-10.402909 38.865454-30.068363l0.186182-0.581819 0.046545-0.628363c1.722182-22.853818-10.193455-37.701818-34.443636-42.938182l-18.525091-4.631273-0.651636-0.162909h-9.122909v-58.740364h36.840727c10.402909-0.977455 22.574545-5.515636 28.858182-20.107636v84.084364c-1.675636 18.897455 1.722182 33.163636 10.123636 42.356363 8.122182 8.890182 20.642909 13.009455 37.329455 12.194909h197.306181c21.248 0.861091 37.003636-3.956364 46.917819-14.312727 8.820364-9.216 12.893091-22.690909 12.148363-40.098909v-199.633454c0.791273-17.361455-2.909091-30.464-10.984727-38.912-7.121455-7.470545-17.547636-11.264-30.952727-11.264-2.536727 0-5.213091 0.139636-7.982546 0.395636h-211.083636a67.956364 67.956364 0 0 0-3.793455-0.093091c-12.171636 0-21.713455 3.537455-28.346181 10.519273-7.959273 8.378182-11.543273 21.620364-10.682182 39.377454v78.545455c-6.353455-15.36-18.757818-19.106909-29.370182-19.106909h-36.328727v-8.96l12.8-17.058909a5359.057455 5359.057455 0 0 0 53.480727-67.444364l0.465454-0.698182c12.055273-22.458182 10.170182-41.844364-5.585454-57.623273l-0.465455-0.395636c-7.517091-6.004364-15.127273-9.053091-22.597818-9.053091-10.286545 0-20.130909 5.655273-29.253818 16.826182l-0.139636 0.186182z m183.528727-34.164364c-27.927273-51.246545-64.186182-100.887273-107.729455-147.572363l-0.512-0.465455c-10.752-8.96-21.829818-13.498182-32.884363-13.498182-9.960727 0-19.968 3.700364-29.696 11.008l-0.418909 0.302546-0.372364 0.418909c-11.147636 12.381091-19.316364 32.209455 4.864 56.366545 31.976727 31.976727 63.720727 76.125091 94.370909 131.258182l0.116364 0.186182c9.495273 15.453091 21.480727 23.272727 35.560727 23.272727 6.376727 0 13.172364-1.629091 20.247273-4.887273l0.558545-0.302545c22.621091-13.963636 28.113455-33.373091 15.895273-56.087273z m179.2-143.918545l-0.418909-0.232728-0.465455-0.186181c-5.12-1.861818-10.053818-2.792727-14.661818-2.792728-13.056 0-23.645091 7.214545-31.464727 21.480728-33.745455 55.156364-63.325091 99.560727-87.947637 131.886545-6.981818 9.565091-9.681455 18.757818-8.145454 27.438546 1.629091 9.099636 7.912727 17.384727 18.781091 24.622545l0.209454 0.139636c17.361455 10.426182 36.305455 7.936 55.109819-7.447272l0.465454-0.372364 0.395636-0.488727c32.488727-41.774545 62.394182-89.762909 88.901819-142.685091l0.279272-0.721455c6.981818-21.015273-0.302545-38.516364-21.015272-50.641454z"  horiz-adv-x="1024" />

    
    <glyph glyph-name="buy_icon_point" unicode="&#58896;" d="M512 384m-512 0a512 512 0 1 1 1024 0 512 512 0 1 1-1024 0ZM772.375273 376.087273c0-12.590545-0.581818-24.855273-1.745455-36.770909-1.163636-11.892364-4.398545-22.574545-9.704727-32-5.329455-9.448727-13.521455-16.989091-24.622546-22.574546-11.101091-5.632-26.577455-8.448-46.475636-8.448-9.704727 0-23.458909 0.116364-41.262545 0.349091-17.803636 0.232727-37.562182 0.465455-59.298909 0.674909-21.736727 0.232727-44.497455 0.558545-68.305455 1.000727l-69.026909 1.349819c-22.178909 0.465455-42.402909 0.791273-60.672 1.024a1529.739636 1529.739636 0 0 0-43.357091 1.000727v-8.750546h-52.014545l31.906909-21.573818a254.72 254.72 0 0 0-22.202182-49.221818 488.308364 488.308364 0 0 0-24.971637-38.4c-9.704727-12.613818-19.642182-24.296727-29.812363-35.072l-56.878546 45.149091a313.716364 313.716364 0 0 1 37.469091 29.672727c11.077818 10.333091 20.573091 20.107636 28.416 29.323637 7.866182 9.216 14.219636 17.408 19.083637 24.599272 4.864 7.214545 8.215273 12.357818 10.053818 15.522909h-39.540364V506.181818h98.490182v-18.874182a1524.503273 1524.503273 0 0 0 38.865455 4.701091 1120.558545 1120.558545 0 0 0 36.747636 3.374546V616.727273h101.236364v-26.973091h278.10909v-41.774546h-278.10909v-42.472727c54.574545 4.491636 98.141091 6.4 130.746181 5.725091 32.581818-0.698182 57.576727-4.375273 74.914909-11.124364 17.338182-6.749091 28.648727-16.849455 33.978182-30.324363 5.306182-13.498182 7.982545-30.580364 7.982546-51.246546v-42.472727zM621.847273 323.490909c13.405091 0 23.575273 2.466909 30.510545 7.424 6.935273 4.933818 12.032 10.542545 15.266909 16.849455 3.234909 7.191273 4.840727 15.499636 4.840728 24.925091v20.247272c0 11.682909-0.581818 22.016-1.722182 30.999273-1.163636 8.983273-3.490909 16.407273-6.935273 22.248727a32.046545 32.046545 0 0 1-15.266909 13.149091c-6.702545 2.909091-15.592727 4.375273-26.693818 4.375273-25.437091 0-53.876364-1.698909-85.317818-5.050182a2534.865455 2534.865455 0 0 1-89.460364-11.124364c-32.814545-4.957091-65.885091-10.333091-99.188364-16.197818v-102.446545c10.170182-0.465455 22.900364-0.791273 38.167273-1.024 15.243636-0.232727 31.418182-0.558545 48.523636-1.000727 17.105455-0.465455 34.909091-0.907636 53.410909-1.349819 18.501818-0.465455 36.072727-0.791273 52.712728-1.024 16.64-0.232727 32.023273-0.442182 46.126545-0.674909 14.103273-0.232727 25.762909-0.325818 35.025455-0.325818z m-199.051637-70.772364c13.405091-12.590545 26.344727-27.415273 38.842182-44.497454a332.8 332.8 0 0 0 33.978182-59.345455l-72.145455-20.875636a335.825455 335.825455 0 0 1-12.8 41.797818 290.210909 290.210909 0 0 1-14.917818 33.047273 301.172364 301.172364 0 0 1-17.361454 29.649454l44.404363 20.224z m152.576 2.024728c14.336-10.798545 29.486545-24.832 45.428364-42.123637 15.941818-17.314909 30.394182-37.888 43.357091-61.696l-74.24-22.923636a311.528727 311.528727 0 0 1-15.941818 42.123636 410.624 410.624 0 0 1-17.338182 33.373091 225.745455 225.745455 0 0 1-20.107636 29.672728l38.865454 21.573818z m188.648728-7.447273c16.174545 0 29.928727-5.259636 41.262545-15.825455 11.333818-10.565818 16.989091-23.272727 16.989091-38.074181 0-7.214545-1.489455-13.940364-4.491636-20.247273a51.665455 51.665455 0 0 0-12.497455-16.500364 59.415273 59.415273 0 0 0-18.711273-11.124363c-7.168-2.699636-14.685091-4.049455-22.551272-4.049455-16.174545 0-30.045091 5.073455-41.611637 15.173818-11.566545 10.123636-17.338182 22.341818-17.338182 36.747637 0 14.824727 5.771636 27.508364 17.338182 38.074181 11.566545 10.565818 25.437091 15.825455 41.611637 15.825455z"  horiz-adv-x="1024" />

    
    <glyph glyph-name="comment_icon_comment" unicode="&#58897;" d="M367.136 414.08c0 30.592-22.72 55.232-50.88 54.784-27.808 0-50.528-24.64-50.528-54.816 0-30.592 22.72-54.784 50.496-54.784 28.16 0 50.88 24.64 50.88 54.784zM949.728 409.568h6.304C956.032 642.464 756.16 832 510.048 832 264 832 64.096 642.464 64.096 409.568c0-137.472 70.688-266.24 188.896-345.28v-126.944c0-11.904 5.888-22.848 15.584-28.32a25.92 25.92 0 0 1 13.888-4.128 27.424 27.424 0 0 1 16.384 5.504l55.552 39.264c1.28 0.896 2.112 1.824 3.36 2.752l60.576 43.84c30.304-5.952 61.024-9.152 91.712-9.6 245.728 0 445.984 189.536 445.984 422.432h-6.304V409.6z m-652.16-298.688l-7.968 5.024c-104.32 67.136-166.176 176.288-166.176 293.664 0 197.28 173.344 358.048 386.624 358.048 213.312 0 386.656-160.768 386.656-358.08 0-197.28-173.344-358.016-386.656-358.016-30.72 0-61.824 3.648-92.128 10.496a27.712 27.712 0 0 1-22.304-4.576l-73.6-53.44c-0.864-0.896-2.112-1.376-2.976-2.272l-6.72-5.024V82.56c0 11.872-5.44 22.4-14.72 28.32zM716.96 358.816c28.192 0 50.496 24.64 50.496 55.264 0 30.112-22.72 54.784-50.496 54.784-28.16 0-50.496-24.64-50.496-55.264-0.416-30.144 22.304-54.784 50.496-54.784z m-198.56 0c28.16 0 50.464 24.64 50.464 55.264 0 30.112-22.72 54.784-50.88 54.784-28.192 0-50.496-24.64-50.496-55.264 0.416-30.592 23.136-54.784 50.88-54.784z"  horiz-adv-x="1024" />

    
    <glyph glyph-name="comment_icon_share" unicode="&#58898;" d="M481.5872 707.072l-222.976-182.6304a42.4704 42.4704 0 0 0-53.0688 65.8176L497.152 829.5168c15.6672 12.8 38.144 12.8 53.8112 0l291.6352-239.2576a42.4704 42.4704 0 1 0-53.0944-65.8176l-222.976 182.6048v-436.736a42.4704 42.4704 0 1 0-84.9408 0V707.072zM56.8832 405.504a42.4704 42.4704 0 1 0 84.9408 0v-353.92c0-15.616 12.672-28.3136 28.3136-28.3136h707.84c15.616 0 28.3136 12.6976 28.3136 28.3136V405.504a42.4704 42.4704 0 1 0 84.9408 0v-353.92a113.2544 113.2544 0 0 0-113.2544-113.2544H170.1376a113.2544 113.2544 0 0 0-113.2544 113.2544V405.504z"  horiz-adv-x="1024" />

    
    <glyph glyph-name="comment_icon_collect" unicode="&#58899;" d="M776.9856-114.5344c-14.0544 0-29.8496 4.096-44.4928 11.4944l-209.152 105.8048-210.432-105.6512c-13.312-7.168-28.5696-10.9312-44.1088-10.9312a93.1328 93.1328 0 0 0-56.1664 18.5856c-29.44 22.3488-44.544 61.0816-37.5808 96.3328l43.0336 225.8688-164.9664 155.5456a103.5776 103.5776 0 0 0-25.6256 99.3792l0.3072 1.152c12.0064 36.352 41.7536 61.824 77.824 66.7136l229.1968 42.1632 102.8608 211.3536c16.512 33.4848 50.1248 54.9888 85.6576 54.9888 37.0944 0 71.5776-22.3232 86.016-55.5776l102.5536-210.688 229.1968-40.5504a93.7216 93.7216 0 0 0 76.3904-67.5072 98.5088 98.5088 0 0 0-23.8848-99.7376l-0.5632-0.5632-164.48-156.6976 41.5488-226.2784c6.7072-36.1728-7.5264-72.7296-37.12-95.5136a87.6032 87.6032 0 0 0-56.0128-19.712z m-253.568 197.0176l219.5712-111.104c6.4512-3.2768 13.8752-5.3248 18.944-5.3248 7.8336 0 15.104 2.432 20.4544 6.912l0.9984 0.8448c12.4672 9.472 18.56 24.5248 15.8208 39.2704l-44.1856 240.7936 174.7712 166.5024a40.704 40.704 0 0 1 9.6256 41.2416l-0.4608 1.536a36.1216 36.1216 0 0 1-29.8752 26.368l-1.024 0.128-241.792 42.752-108.8256 223.6672c-5.2992 12.4928-19.6352 21.5552-34.1248 21.5552-14.208 0-27.8272-9.0112-34.7136-22.912l-108.1344-222.208-243.0976-44.6464c-14.7456-1.8944-26.2144-11.8016-31.5136-27.2896a45.7472 45.7472 0 0 1 10.9568-41.7792l174.976-164.9408-45.9264-240.9472c-2.7648-13.9264 3.7632-29.952 15.8208-39.1168 6.0416-4.608 13.8752-7.1424 22.0928-7.1424 6.3488 0 12.416 1.5104 17.664 4.352l0.7424 0.4352 221.2352 111.0528z"  horiz-adv-x="1024" />

    
    <glyph glyph-name="fiction_icon_catalog" unicode="&#58900;" d="M55.8848 742.4h41.2928c16.7168 0 30.2848-14.4896 30.2848-32.384v-4.864c0-17.8944-13.568-32.384-30.2848-32.384H55.8848C39.168 672.768 25.6 687.2576 25.6 705.152v4.864C25.6 727.9104 39.168 742.4 55.8848 742.4z m203.7248 0h687.4368c16.7168 0 30.2848-14.4896 30.2848-32.384v-4.864c0-17.8944-13.568-32.384-30.2848-32.384H259.6096c-16.7168 0-30.2848 14.4896-30.2848 32.384v4.864c0 17.8944 13.568 32.384 30.2848 32.384zM55.8848 430.2848h41.2928c16.7168 0 30.2848-14.4896 30.2848-32.384v-5.0944c0-17.8688-13.568-32.384-30.2848-32.384H55.8848C39.168 360.448 25.6 374.9376 25.6 392.8064v5.12c0 17.8688 13.568 32.3584 30.2848 32.3584z m203.7248 0h687.4368c16.7168 0 30.2848-14.4896 30.2848-32.384v-5.0944c0-17.8688-13.568-32.384-30.2848-32.384H259.6096c-16.7168 0-30.2848 14.5152-30.2848 32.384v5.12c0 17.8688 13.568 32.3584 30.2848 32.3584z m-203.7248-312.32h41.2928c16.7168 0 30.2848-14.5152 30.2848-32.384v-4.864c0-17.8944-13.568-32.384-30.2848-32.384H55.8848C39.168 48.3328 25.6 62.8224 25.6 80.7168v4.864c0 17.8688 13.568 32.384 30.2848 32.384z m203.7248 0h687.4368c16.7168 0 30.2848-14.5152 30.2848-32.384v-4.864c0-17.8944-13.568-32.384-30.2848-32.384H259.6096c-16.7168 0-30.2848 14.4896-30.2848 32.384v4.864c0 17.8688 13.568 32.384 30.2848 32.384z"  horiz-adv-x="1024" />

    
    <glyph glyph-name="fiction_icon_collect" unicode="&#58901;" d="M239.4112-39.6544a66.048 66.048 0 0 1 68.5568-3.6864l203.264 109.7472 203.3152-109.7472a66.2272 66.2272 0 0 1 68.608 3.6864 62.5664 62.5664 0 0 1 26.4448 61.8752l-39.6032 237.2608 170.9056 171.1104a61.952 61.952 0 0 1 15.0016 64.128 64.4352 64.4352 0 0 1-51.5584 42.4192l-233.1392 34.7904-101.376 210.944A64.8192 64.8192 0 0 1 511.232 819.2c-25.0368 0-47.872-14.1824-58.5472-36.352l-101.3504-210.944-233.1392-34.7648c-23.9616-3.584-43.8528-19.968-51.584-42.4192a62.0032 62.0032 0 0 1 15.0528-64.128l170.8288-171.1104-39.6288-237.2608a62.6432 62.6432 0 0 1 26.5472-61.8752zM117.76 474.2656l232.3968 34.6112 40.8832 6.144 17.9456 37.2736 102.272 212.608 102.2464-212.608 17.9712-37.2992 40.8832-6.1184 232.3968-34.6112-169.472-169.4976-28.4672-28.4672 6.6304-39.7568 39.6032-236.8-204.8256 110.4384-37.0176 19.968-36.992-19.968-204.8-110.4896 39.5776 236.8512 6.656 39.7568-28.4928 28.4672L117.76 474.2656z"  horiz-adv-x="1024" />

    
    <glyph glyph-name="fiction_icon_collected" unicode="&#58902;" d="M775.2192-76.8c-10.496 0-22.784 3.456-33.3312 8.6528l-227.9936 112.384-229.76-112.384c-22.784-12.1088-52.6336-10.3936-73.6768 5.1712-21.0432 15.5648-33.3056 43.2384-28.0576 69.1712l47.36 242.0736-180.6592 165.9904c-19.3024 19.0208-26.3168 48.4096-19.3024 72.6272 8.7808 25.9328 29.824 44.9536 57.8816 48.4096l250.8288 44.9536 112.2304 224.768C463.0272 829.2608 487.6032 844.8 513.8944 844.8c26.3168 0 52.608-15.5648 63.1296-39.7568l112.256-224.768 250.8032-43.264c26.3168-3.456 49.1264-22.4768 56.1408-48.384a69.7856 69.7856 0 0 0-17.536-72.6272l-180.6592-167.7312 45.5936-242.0736c5.2736-27.648-7.0144-53.6064-28.0576-69.1712-10.5216-8.6272-24.576-13.824-40.3456-13.824z"  horiz-adv-x="1024" />

    
    <glyph glyph-name="fiction_icon_set" unicode="&#58903;" d="M271.9488 691.2h62.0288l246.3488-615.04h-57.7024l-71.5008 183.4752H154.8032l-71.5008-183.4752H25.6L271.9488 691.2zM172.032 304.4352h261.888L304.6656 634.368H302.08l-130.048-329.9072z m651.2128 229.12c62.592 0 108.8-16.9216 138.6752-50.816 26.4192-29.2864 39.6288-69.1968 39.6288-119.7312v-286.848h-49.1008v85.2992c-18.3808-26.4192-42.496-48.5376-72.3456-66.3296-35.0464-20.6848-73.8048-31.0272-116.3008-31.0272-43.648 0-78.9504 11.2128-105.9328 33.6128-27.008 22.9632-40.4992 53.6832-40.4992 92.16 0 56.832 23.2704 98.2016 69.7856 124.032 37.3248 21.248 86.9888 31.872 148.992 31.872l113.7152 0.8704v16.384c0 84.4032-43.0592 126.592-129.2032 126.592-39.6288 0-70.656-8.32-93.0304-24.96-25.2672-16.64-40.4736-42.496-45.6448-77.5424h-50.8416c6.912 49.9712 27.8528 87.296 62.8992 112 32.1536 22.9632 75.2128 34.432 129.2032 34.432z m126.6176-229.12l-111.104-0.8704c-112.5632-0.5632-168.832-38.1696-168.832-112.8192 0-24.704 9.472-44.8 28.416-60.3136 18.3808-15.488 43.648-23.2448 75.8016-23.2448 46.5152 0 87.8592 15.488 124.032 46.5152 34.4576 30.4384 51.712 63.4368 51.712 99.072v51.6608z"  horiz-adv-x="1024" />

    
    <glyph glyph-name="fiction_icon_night" unicode="&#58904;" d="M512 705.9712a227.072 227.072 0 0 1-71.9872-165.9648 227.9936 227.9936 0 0 1 227.9936-228.0192A227.1488 227.1488 0 0 1 833.9968 384H896c0-212.096-171.9296-384-384-384-212.0704 0-384 171.904-384 384S299.9296 768 512 768v-62.0288zM176 384c0-185.5488 150.4256-336 336-336 165.888 0 303.36 120.32 330.7264 278.4a274.7904 274.7904 0 0 0-174.72-62.3872c-152.4224 0-275.9936 123.5712-275.9936 275.968 0 66.3296 23.424 127.1552 62.3872 174.7456C296.3456 687.36 176 549.888 176 384z"  horiz-adv-x="1024" />

    
    <glyph glyph-name="home_icon_more" unicode="&#58905;" d="M289.047273 783.034182a43.566545 43.566545 0 0 0 0 55.063273 30.394182 30.394182 0 0 0 47.383272 0l398.75491-424.401455c6.981818-8.192 10.007273-19.083636 9.495272-29.509818a42.496 42.496 0 0 0-9.495272-29.835637l-398.708364-424.494545a30.394182 30.394182 0 0 0-47.383273 0 43.566545 43.566545 0 0 0 0 55.156364l374.644364 399.173818-374.690909 398.848z"  horiz-adv-x="1024" />

    
    <glyph glyph-name="home_icon_view" unicode="&#58906;" d="M509.994667 559.104a213.930667 213.930667 0 0 1-150.613334-64.768A212.010667 212.010667 0 0 1 298.666667 342.656c1.706667-115.882667 95.061333-207.914667 211.925333-210.218667 118.528 0 214.741333 95.445333 214.741333 213.077334-0.554667 118.186667-97.365333 213.589333-215.338666 213.589333z m130.005333-213.333333c0-70.528-57.984-128-129.152-128-71.168 1.706667-128 60.330667-126.848 130.304 1.706667 68.266667 58.581333 124.586667 126.848 125.696 71.168 0 129.152-57.429333 129.152-128z m238.634667 250.154666C768.768 709.589333 638.378667 772.437333 512 772.437333c-165.333333 0-296.704-105.386667-360.661333-167.594666C63.445333 518.485333 0 409.898667 0 347.050667c0-104.746667 230.272-427.946667 512-427.946667 163.84 0 296.192 107.946667 360.661333 172.714667C960.554667 180.053333 1024 287.36 1024 347.050667c0 48.256-54.442667 154.282667-145.365333 248.874666z m-55.466667-435.242666c-57.429333-58.453333-173.781333-156.245333-311.168-156.245334-129.877333 0-246.741333 94.549333-304.682667 150.314667-83.456 80.768-134.4 167.424-134.4 194.304 0 21.674667 43.946667 105.045333 127.402667 187.733333C257.237333 593.237333 373.632 687.104 512 687.104c137.856 0 248.277333-83.328 316.672-153.6 80.426667-82.688 122.410667-166.698667 122.410667-184.448 0-17.706667-43.477333-103.04-127.872-188.373333z"  horiz-adv-x="1024" />

    
    <glyph glyph-name="fiction_icon_sun" unicode="&#58907;" d="M984.832 356.1984h-55.6544a27.8016 27.8016 0 1 0 0 55.6032h55.6288a27.8272 27.8272 0 0 0 0-55.6032z m-157.5424-326.8352l-29.5936 29.5936a27.8272 27.8272 0 0 0 39.3472 39.3216l29.5936-29.5936a27.8272 27.8272 0 1 0-39.3472-39.3216z m9.216 639.872a27.7248 27.7248 0 1 0-39.2704 39.2448l29.5424 29.5424a27.7248 27.7248 0 1 0 39.2448-39.2448l-29.5424-29.5424zM512 50.2272c-184.32 0-333.7472 149.4272-333.7472 333.7472 0 184.32 149.4272 333.7472 333.7472 333.7472 184.32 0 333.7472-149.4272 333.7472-333.7472 0-184.32-149.4272-333.7472-333.7472-333.7472z m0 609.4592c-152.2688 0-275.712-123.4432-275.712-275.712 0-152.2688 123.4432-275.712 275.712-275.712 152.2688 0 275.712 123.4432 275.712 275.712 0 152.2688-123.4432 275.712-275.712 275.712z m0 113.664c-15.36 0-27.8016 12.4928-27.8016 27.8272V856.832a27.8272 27.8272 0 0 0 55.6032 0v-55.6288c0-15.36-12.4416-27.8016-27.8016-27.8016zM187.5968 669.0816L158.0032 698.624A27.8272 27.8272 0 1 0 197.376 737.9712L226.944 708.352a27.8272 27.8272 0 1 0-39.3472-39.3216zM94.8224 356.1984H39.168a27.8016 27.8016 0 1 0 0 55.6032h55.6288a27.8272 27.8272 0 0 0 0-55.6032zM188.6208 99.84a27.7248 27.7248 0 1 0 39.2448-39.2448l-29.5424-29.5424a27.6736 27.6736 0 0 0-39.2448 0 27.6992 27.6992 0 0 0 0 39.2192l29.5424 29.568zM512-5.376c15.36 0 27.8016-12.4672 27.8016-27.8016v-55.6288a27.8016 27.8016 0 1 0-55.6032 0v55.6288c0 15.36 12.4416 27.8016 27.8016 27.8016z"  horiz-adv-x="1024" />

    
    <glyph glyph-name="home_icon_comments" unicode="&#58908;" d="M332.672 374.272c0 32.341333-24.021333 58.453333-53.802667 57.941333-29.354667 0-53.376-26.069333-53.376-57.941333 0-32.384 24.021333-57.984 53.333334-57.984 29.866667 0 53.845333 26.112 53.845333 57.984zM947.114667 406.613333h6.656C953.770667 652.928 742.442667 853.333333 482.176 853.333333 221.909333 853.333333 10.581333 652.928 10.581333 406.613333c0-145.365333 74.752-281.6 199.765334-365.098666v-134.272a34.133333 34.133333 0 0 1 16.469333-29.952c4.437333-2.901333 9.813333-4.352 14.677333-4.352a29.013333 29.013333 0 0 1 17.365334 5.802666l58.709333 41.557334c1.322667 0.938667 2.218667 1.92 3.541333 2.901333l64.085334 46.336c32-6.272 64.512-9.642667 96.981333-10.112 259.84 0 471.594667 200.405333 471.594667 446.72h-6.656v0.426667zM257.493333 90.752l-8.448 5.333333c-110.336 70.997333-175.744 186.410667-175.744 310.528 0 208.64 183.338667 378.624 408.874667 378.624 225.578667 0 408.874667-169.984 408.874667-378.624 0-208.64-183.296-378.624-408.874667-378.624-32.469333 0-65.408 3.84-97.408 11.093334a29.312 29.312 0 0 1-23.594667-4.821334L283.306667-22.229333c-0.853333-0.981333-2.218667-1.450667-3.114667-2.432l-7.125333-5.290667v90.794667a34.944 34.944 0 0 1-15.573334 29.909333zM701.056 332.245333c29.824 0 53.418667 26.069333 53.418667 58.453334 0 31.829333-24.021333 57.941333-53.418667 57.941333-29.781333 0-53.333333-26.112-53.333333-58.453333-0.469333-31.872 23.552-57.941333 53.333333-57.941334z m-209.962667 0c29.781333 0 53.333333 26.069333 53.333334 58.453334 0 31.829333-23.978667 57.941333-53.76 57.941333-29.866667 0-53.418667-26.112-53.418667-58.453333 0.426667-32.341333 24.448-57.941333 53.845333-57.941334z"  horiz-adv-x="1024" />

    
    <glyph glyph-name="home_icon_time" unicode="&#58909;" d="M512.001067-127.998293a508.798092 508.798092 0 0 0-362.025309 149.887438A508.670092 508.670092 0 0 0 0.045653 383.999787c0 136.78882 53.290467 265.385671 150.015438 362.067975A508.670092 508.670092 0 0 0 512.129066 895.997867c136.746154 0 265.385671-53.2478 362.110642-149.887438 199.593918-199.679251 199.593918-524.499366 0-724.135951A509.139424 509.139424 0 0 0 512.001067-127.998293z m0.085333 942.929797C396.972165 814.931504 288.769904 770.131672 207.362209 688.638644A428.115728 428.115728 0 0 1 81.154682 383.999787c0-115.199568 44.799832-223.401829 126.164861-304.766857A428.201061 428.201061 0 0 1 512.001067-47.05993c115.071568 0 223.401829 44.885165 304.894856 126.29286 168.020703 167.978037 168.020703 441.385011 0 609.448381A427.987728 427.987728 0 0 1 512.129066 814.931504zM715.904302 174.336573a47.274489 47.274489 0 0 0-23.807911 6.655975l-173.524682 105.172939-2.645324 1.493328c-5.973311 3.285321-13.226617 7.338639-17.493267 12.543953-23.21058 13.567949-34.474537 27.306564-34.474538 41.77051V636.158841a49.70648 49.70648 0 1 0 99.412961 0v-270.505652l170.538027-98.602297c11.519957-6.655975 20.309257-17.066603 24.959906-29.525223 4.778649-13.269284 3.839986-26.879899-2.815989-38.399856-9.087966-15.786607-23.765244-24.831907-40.149183-24.831907v0.042667z"  horiz-adv-x="1024" />

    
    <glyph glyph-name="mine_icon_service" unicode="&#58910;" d="M237.376 179.616c89.76-66.816 179.52-87.776 278.528-87.776 99.52 0 206.816 39.488 274.144 96.064 85.344-46.336 160.96-151.2 162.432-252.672H72.96c12.192 120.512 96.096 207.328 164.384 244.384z m546.816 53.184a402.848 402.848 0 0 0-273.664-105.856c-105.824 0-201.92 40-273.632 105.344C108.608 167.904 24.224 52.8 24.224-103.776h975.552c0 156.576-85.856 272.192-215.584 336.576z m-590.72 142.4v248.32l-10.72-0.512c56.576 122.432 181.952 207.328 327.776 207.328 145.376 0 270.72-84.896 327.296-207.328l-10.24 0.48v-248.256c69.76 0 126.848 55.584 126.848 123.872 0 46.848-26.368 87.328-65.376 108.8C834.912 761.536 686.144 871.776 510.528 871.776c-175.584 0-324.352-110.24-378.976-263.872-39.04-21.472-64.896-61.952-64.896-108.8 0-68.288 56.576-123.872 126.816-123.872z m316.576-120.448c-126.816 0-229.248 100.48-229.248 224.352 0 123.904 108.768 224.384 229.248 224.384 126.336 0 228.8-100.48 228.8-224.384 0-123.872-102.464-224.352-228.8-224.352z m0.48 492.64c-151.68 0-274.592-120.48-274.592-268.768 0-148.768 122.88-269.248 274.592-269.248 151.232 0 274.144 120.48 274.144 269.248 0 148.288-122.912 268.8-274.144 268.8z"  horiz-adv-x="1024" />

    
    <glyph glyph-name="mine_icon_release_close" unicode="&#58911;" d="M512 384m0 512a512 512 0 1 1 0-1024 512 512 0 1 1 0 1024ZM409.9584 244.11136l100.1984 100.1984 100.1984-100.1984a28.3648 28.3648 0 0 1 40.09984 40.0896l-100.1984 100.1984 100.15744 100.16768a28.35456 28.35456 0 0 1 0.04096 40.05888 28.3648 28.3648 0 0 1-40.09984 0l-100.1984-100.1984-100.1984 100.1984a28.3648 28.3648 0 0 1-40.0896-40.0896l100.1984-100.1984-100.1984-100.1984a28.33408 28.33408 0 0 1 40.0896-40.02816z"  horiz-adv-x="1024" />

    
    <glyph glyph-name="mine_icon_release" unicode="&#58912;" d="M512 384m-512 0a512 512 0 1 1 1024 0 512 512 0 1 1-1024 0ZM538.76736 212.93056V354.63168h141.70112a28.3648 28.3648 0 0 1 0 56.69888H538.76736V552.99072a28.35456 28.35456 0 0 1-28.30336 28.35456 28.3648 28.3648 0 0 1-28.35456-28.3648v-141.69088H340.40832a28.3648 28.3648 0 0 1 0-56.69888H482.0992v-141.71136a28.33408 28.33408 0 0 1 56.65792 0.0512z"  horiz-adv-x="1024" />

    
    <glyph glyph-name="mine_icon_comment" unicode="&#58913;" d="M346.432 434.816c0 33.76-25.952 60.992-58.176 60.48-31.744 0-57.696-27.2-57.696-60.48 0-33.76 25.952-60.48 57.696-60.48 32.224 0 58.176 27.2 58.176 60.48zM1012.256 429.856h7.2C1019.456 686.88 791.072 896 509.792 896S0.096 686.88 0.096 429.856c0-151.68 80.8-293.792 215.904-380.992v-140.096c0-13.12 6.72-25.184 17.792-31.232a30.4 30.4 0 0 1 15.872-4.544c6.72 0 12.992 2.016 18.752 6.08l63.456 43.328c1.44 0.992 2.4 2.016 3.84 3.008l69.248 48.384c34.624-6.56 69.728-10.08 104.832-10.56 280.8 0 509.664 209.12 509.664 466.112h-7.2v0.512z m-745.28-329.6l-9.152 5.568c-119.232 74.08-189.92 194.528-189.92 324.032 0 217.696 198.08 395.104 441.888 395.104 243.776 0 441.856-177.408 441.856-395.104s-198.08-395.104-441.856-395.104c-35.104 0-70.688 4.032-105.28 11.616-8.672 2.016-18.304 0-25.504-5.056l-84.16-58.944c-0.96-1.024-2.4-1.536-3.36-2.56l-7.68-5.504v94.72c0 13.12-6.272 24.704-16.832 31.264zM746.24 373.856c32.224 0 57.696 27.2 57.696 60.96 0 33.28-25.952 60.48-57.696 60.48-32.224 0-57.696-27.2-57.696-60.96-0.48-33.28 25.472-60.48 57.696-60.48z m-226.944 0c32.224 0 57.696 27.2 57.696 60.96 0 33.28-25.952 60.48-58.176 60.48-32.224 0-57.696-27.2-57.696-60.96 0.48-33.76 26.432-60.48 58.176-60.48z"  horiz-adv-x="1024" />

    
    <glyph glyph-name="nav_double" unicode="&#58914;" d=""  horiz-adv-x="1024" />

    
    <glyph glyph-name="mine_more" unicode="&#58915;" d="M287.744 793.668267a42.837333 42.837333 0 0 0 0 56.558933 34.269867 34.269867 0 0 0 51.473067 0l433.493333-435.746133c7.5776-8.3968 10.820267-19.5584 10.274133-30.3104 0.580267-11.093333-2.696533-22.254933-10.274133-30.6176L339.217067-82.261333a34.269867 34.269867 0 0 0-51.438934 0c-14.2336 15.9744-14.2336 41.0624 0 56.593066l407.210667 409.8048L287.812267 793.668267z"  horiz-adv-x="1024" />

    
    <glyph glyph-name="mine_icon_release_fiction" unicode="&#58916;" d="M512 384m-512 0a512 512 0 1 1 1024 0 512 512 0 1 1-1024 0ZM598.89664 216.63744c-25.79456 0-56.2176-7.53664-62.90432-24.95488l-1.28-0.03072c-0.47104-1.29024-1.18784-2.36544-1.90464-3.51232-0.44032-0.72704-0.8704-1.4336-1.41312-2.07872a19.01568 19.01568 0 0 0-5.4272-4.39296c-0.74752-0.39936-1.4336-0.84992-2.24256-1.15712A18.688 18.688 0 0 0 517.12 179.2c-2.36544 0-4.52608 0.53248-6.59456 1.31072-0.79872 0.3072-1.49504 0.75776-2.2528 1.15712a18.176 18.176 0 0 0-5.4272 4.38272c-0.53248 0.64512-0.95232 1.35168-1.39264 2.05824a17.46944 17.46944 0 0 0-1.90464 3.5328c-0.4608 0.03072-0.88064 0.03072-1.30048 0.04096-6.68672 17.41824-37.10976 24.95488-62.90432 24.95488H296.96V578.56h150.46656c28.45696 0 53.49376-12.8 69.69344-32.34816C533.31968 565.77024 558.35648 578.56 586.81344 578.56H737.28v-361.92256H598.89664z m-100.64896 62.40256V491.20256c0 29.184-19.17952 49.92-50.31936 49.92H334.70464v-287.04768h100.63872c24.8832-0.90112 45.8752-10.11712 62.90432-24.95488V279.04z m201.28768 262.08256H586.31168c-31.1296 0-50.31936-20.74624-50.31936-49.92v-262.08256c17.02912 14.848 38.03136 24.05376 62.90432 24.96512h100.63872v287.0272z"  horiz-adv-x="1024" />

    
    <glyph glyph-name="mine_icon_release_picture" unicode="&#58917;" d="M512 384m-512 0a512 512 0 1 1 1024 0 512 512 0 1 1-1024 0ZM343.12192 534.19008c-10.37312 0-18.76992-8.40704-18.76992-18.78016v-262.81984c0-10.37312 8.3968-18.78016 18.76992-18.78016h337.92c10.36288 0 18.76992 8.40704 18.76992 18.78016V515.40992c0 10.37312-8.3968 18.78016-18.76992 18.78016h-337.92z m0 37.53984h337.92a56.32 56.32 0 0 0 56.32-56.32v-262.81984a56.32 56.32 0 0 0-56.32-56.32h-337.92a56.32 56.32 0 0 0-56.32 56.32V515.40992a56.32 56.32 0 0 0 56.32 56.32zM418.21184 421.55008a37.55008 37.55008 0 1 0 0 75.08992 37.55008 37.55008 0 1 0 0-75.08992z m-100.864-185.10848a18.76992 18.76992 0 1 0-23.552 29.24544l152.39168 122.5216a18.76992 18.76992 0 0 0 23.40864 0.1024l86.77376-68.51584 137.78944 151.9104a18.78016 18.78016 0 0 0 27.82208-25.23136L572.39552 281.56928a18.76992 18.76992 0 0 0-25.52832-2.11968l-88.80128 70.12352L317.34784 236.4416z"  horiz-adv-x="1024" />

    
    <glyph glyph-name="mine_icon_vip" unicode="&#58918;" d="M794.592 63.008h-691.2a38.4 38.4 0 0 0-38.4 38.4v691.2a38.4 38.4 0 0 0 38.4 38.4h691.2a38.4 38.4 0 0 0 38.4-38.4v-691.2a38.4 38.4 0 0 0-38.4-38.4z m-665.6 64h640v640h-640v-640zM952.896-95.52H258.016v77.216h656.288V637.984h77.216v-694.88c0-21.344-17.28-38.624-38.624-38.624zM516.288 251.936a38.592 38.592 0 0 0-33.408 57.92l78.016 135.104-78.016 135.104a38.592 38.592 0 0 0 66.88 38.624l89.152-154.4c6.912-11.968 6.912-26.688 0-38.624l-89.152-154.432a38.592 38.592 0 0 0-33.472-19.296z"  horiz-adv-x="1024" />

    
    <glyph glyph-name="mine_icon_release_video" unicode="&#58919;" d="M512 384m-512 0a512 512 0 1 1 1024 0 512 512 0 1 1-1024 0ZM730.55232 533.03296c-5.46816 0-11.1616-1.49504-16.36352-4.7616l-101.33504-63.2832v53.1968C612.864 540.12928 594.944 558.08 573.05088 558.08H306.04288A39.82336 39.82336 0 0 1 266.24 518.18496v-268.17536c0-21.93408 17.92-39.8848 39.80288-39.8848h267.008a39.82336 39.82336 0 0 1 39.80288 39.8848V303.2064l101.33504-63.2832a30.8224 30.8224 0 0 1 16.36352-4.7616c16.14848 0 31.06816 12.91264 31.06816 31.08864V501.95456c-0.0512 18.176-14.91968 31.0784-31.06816 31.0784z m-166.89152-99.01056v-174.03904H315.99616V508.2112h247.66464v-74.1888zM711.81312 299.8272l-72.58112 45.54752-26.37824 16.61952v44.21632l26.37824 16.61952 72.58112 45.54752v-168.5504zM340.54144 452.608a30.75072 30.75072 0 0 1 30.72-30.79168c16.96768 0 30.72 13.78304 30.72 30.78144a30.75072 30.75072 0 0 1-30.72 30.79168c-16.96768 0-30.72-13.78304-30.72-30.79168z"  horiz-adv-x="1024" />

    
    <glyph glyph-name="nav_myup" unicode="&#58920;" d="M1545.898667-72.0896L853.333333 624.2304 160.768-72.021333c-35.362133-35.498667-98.986667-35.498667-134.280533 0-35.293867 35.498667-35.293867 99.464533 0 135.031466L782.677333 830.327467c35.293867 35.498667 98.986667 35.498667 134.280534 0l763.221333-767.3856c35.293867-35.498667 35.293867-99.5328 0-135.031467-35.362133-35.498667-98.986667-35.498667-134.280533 0z"  horiz-adv-x="1706" />

    
    <glyph glyph-name="nav_single" unicode="&#58921;" d="M512 805.647059m45.176471 0l421.647058 0q45.176471 0 45.176471-45.176471l0 0q0-45.176471-45.176471-45.17647l-421.647058 0q-45.176471 0-45.176471 45.17647l0 0q0 45.176471 45.176471 45.176471ZM512 263.529412m45.176471 0l421.647058 0q45.176471 0 45.176471-45.176471l0 0q0-45.176471-45.176471-45.17647l-421.647058 0q-45.176471 0-45.176471 45.17647l0 0q0 45.176471 45.176471 45.176471ZM512 594.823529m45.176471 0l421.647058 0q45.176471 0 45.176471-45.17647l0 0q0-45.176471-45.176471-45.176471l-421.647058 0q-45.176471 0-45.176471 45.176471l0 0q0 45.176471 45.176471 45.17647ZM512 52.705882m45.176471 0l421.647058 0q45.176471 0 45.176471-45.17647l0 0q0-45.176471-45.176471-45.176471l-421.647058 0q-45.176471 0-45.176471 45.176471l0 0q0 45.176471 45.176471 45.17647Z"  horiz-adv-x="1024" />

    
    <glyph glyph-name="nav_mydown" unicode="&#58922;" d="M160.768 840.0896l692.565333-696.32L1545.898667 840.021333c35.362133 35.498667 98.986667 35.498667 134.280533 0 35.293867-35.498667 35.293867-99.464533 0-135.031466L923.989333-62.327467c-35.293867-35.498667-98.986667-35.498667-134.280533 0L26.487467 705.058133c-35.293867 35.498667-35.293867 99.5328 0 135.031467 35.362133 35.498667 98.986667 35.498667 134.280533 0z"  horiz-adv-x="1706" />

    
    <glyph glyph-name="nav_my" unicode="&#58923;" d="M510.189714 888.064C232.557714 888.064 2.523429 658.029714 2.523429 380.397714c0-277.632 222.116571-507.684571 507.666285-507.684571 285.568 0 507.684571 222.116571 507.684572 507.684571C1009.92 658.029714 787.84 888.064 510.171429 888.064z m0-920.155429c-111.049143 0-214.162286 31.725714-293.485714 103.131429-15.872 15.853714-23.808 39.643429-15.872 63.451429 47.597714 95.195429 134.857143 158.646857 237.970286 182.436571-71.387429 31.744-118.985143 111.067429-111.049143 198.308571 15.872 71.405714 71.387429 134.857143 142.774857 142.793143 118.985143 23.789714 214.180571-63.451429 214.180571-174.518857 0-71.387429-47.597714-142.774857-111.049142-166.582857 103.131429-23.789714 190.372571-87.241143 237.970285-182.436571 7.936-23.808 7.936-47.597714-15.872-63.451429-71.387429-71.405714-174.500571-103.131429-285.568-103.131429z"  horiz-adv-x="1024" />

    
    <glyph glyph-name="play_icon_landscape" unicode="&#58924;" d="M669.8752 870.4h210.4832c58.112 0 105.2416-48.384 105.2416-108.0832v-216.192h-105.2416V708.2752c0 29.8496-23.552 54.016-52.6336 54.016h-157.8496V870.4zM354.1248 870.4v-108.0832H196.2752c-29.0816 0-52.6336-24.192-52.6336-54.0416v-162.1504H38.4V762.3168C38.4 822.016 85.504 870.4 143.6416 870.4h210.4832z m315.7504-972.8v108.0832h157.8496c29.0816 0 52.6336 24.192 52.6336 54.0416v162.1504H985.6v-216.192C985.6-54.016 938.496-102.4 880.3584-102.4h-210.4832z m-315.7504 0H143.6416C85.5296-102.4 38.4-54.016 38.4 5.6832v216.192h105.2416v-162.1504c0-29.8496 23.552-54.016 52.6336-54.016h157.8496V-102.4z"  horiz-adv-x="1024" />

    
    <glyph glyph-name="play_icon_close" unicode="&#58925;" d="M856.128 10.656a29.024 29.024 0 0 0-20.48 8.512L136.704 718.048a29.024 29.024 0 0 0 41.024 41.024L876.704 60.16a29.088 29.088 0 0 0-20.576-49.472M157.248 10.656a28.96 28.96 0 0 0-20.512 49.536l698.944 698.88a29.024 29.024 0 0 0 40.96-41.024L177.76 19.2c-5.44-5.44-12.8-8.512-20.512-8.512"  horiz-adv-x="1024" />

    
    <glyph glyph-name="nav_home" unicode="&#58926;" d="M569.808206 874.707078a82.081137 82.081137 0 0 1-110.287073 0L13.578761 451.245675a41.145293 41.145293 0 0 1 55.085356-61.112862l7.098029 6.748945v-441.962821a82.267315 82.267315 0 0 1 82.267315-82.383676H397.500654V120.268094a57.94784 57.94784 0 0 0 57.94784 57.994384h112.66084a57.94784 57.94784 0 0 0 57.94784-57.994384v-247.709561h245.126344a82.267315 82.267315 0 0 1 82.313859 82.383676V391.482602c18.268696-16.52328 44.217227-15.266579 59.41399 1.6756a41.145293 41.145293 0 0 1-2.955573 58.087473L569.784934 874.707078z"  horiz-adv-x="1024" />

    
    <glyph glyph-name="play_icon_play" unicode="&#58927;" d="M204.8 793.6m76.8 0l0 0q76.8 0 76.8-76.8l0-665.6q0-76.8-76.8-76.8l0 0q-76.8 0-76.8 76.8l0 665.6q0 76.8 76.8 76.8ZM665.6 793.6m76.8 0l0 0q76.8 0 76.8-76.8l0-665.6q0-76.8-76.8-76.8l0 0q-76.8 0-76.8 76.8l0 665.6q0 76.8 76.8 76.8Z"  horiz-adv-x="1024" />

    
    <glyph glyph-name="play_icon_pause" unicode="&#58928;" d="M908.357269 472.32805c55.064554-32.357785 73.828997-103.754829 41.880804-159.48497a115.991396 115.991396 0 0 0-41.880804-42.392795L282.858754-109.497696a122.672869 122.672869 0 0 0-124.183241-3.14874 115.633003 115.633003 0 0 0-63.230798 104.062023V750.978755A115.888998 115.888998 0 0 0 158.649914 855.040778a122.672869 122.672869 0 0 0 124.157641-3.12314L908.382869 472.32805z"  horiz-adv-x="1024" />

    
    <glyph glyph-name="play_icon_tag" unicode="&#58929;" d="M955.84 747.68a82.496 82.496 0 0 1-24.032 57.152 81.824 81.824 0 0 1-57.184 24L525.44 833.184a83.232 83.232 0 0 1-59.104-24L56.032 398.656A81.312 81.312 0 0 1 32 340.608c0-21.984 8.448-42.592 24-58.048l353.504-353.408c15.552-15.552 36.096-24 58.08-24s42.624 8.448 58.08 24l410.304 410.24a82.24 82.24 0 0 1 24 59.072l-4.16 349.216z m-50.304-377.632l-410.336-410.24a38.528 38.528 0 0 0-27.616-11.392 38.72 38.72 0 0 0-27.616 11.392L86.56 313.088a38.496 38.496 0 0 0-11.36 27.648c0 10.496 3.936 20.16 11.36 27.616l410.336 410.24c7.232 7.2 17.28 11.36 27.616 11.36h0.576l349.216-4.256c21.44-0.352 38.336-17.152 38.56-38.56l4.288-349.12c0-10.4-4.16-20.544-11.616-27.968z m-271.2 264.32a97.344 97.344 0 0 1 68.8-166.144 97.344 97.344 0 0 1 68.8 166.176 97.28 97.28 0 0 1-137.6 0z m107.136-107.072a54.016 54.016 0 0 0-38.336-15.872 54.08 54.08 0 1 0 0 108.224 54.08 54.08 0 0 0 38.336-92.32z"  horiz-adv-x="1024" />

    
    <glyph glyph-name="play" unicode="&#58930;" d="M512 384m-512 0a512 512 0 1 1 1024 0 512 512 0 1 1-1024 0ZM392.049778 128c-18.872889 0-35.128889 7.04-46.919111 20.337778-11.790222 13.312-18.346667 32.355556-18.346667 53.475555V566.186667c0 21.12 6.556444 40.163556 18.346667 53.475555 11.804444 13.297778 28.046222 20.337778 46.933333 20.337778 14.151111 0 28.828444-4.167111 43.235556-12.259556L727.324444 444.899556c25.685333-14.606222 40.362667-36.778667 40.362667-61.027556 0-24.519111-14.677333-46.435556-41.144889-61.553778L436.622222 141.041778c-15.729778-8.874667-30.151111-13.041778-44.572444-13.041778z"  horiz-adv-x="1024" />

    
    <glyph glyph-name="play_icon_view" unicode="&#58931;" d="M528 760.48c-218.144 0-412.48-150.592-496-384 83.52-233.44 277.856-384 496-384s412.48 150.56 496 384c-83.52 233.44-277.856 384-496 384z m0-713.024c-189.088 0-363.616 127.328-444.96 324.352l-1.792 4.672 1.792 4.64C164.384 578.176 338.912 705.504 528 705.504c188.864 0 363.616-127.36 444.736-324.384l2.016-4.64-2.016-4.672c-81.12-197.024-255.872-324.352-444.736-324.352z m0 499.392c-94.24 0-170.912-76.8-170.912-171.392 0-94.4 76.672-171.2 170.912-171.2 94.24 0 170.912 76.8 170.912 171.2 0 94.592-76.672 171.392-170.912 171.392z m0-298.112a126.72 126.72 0 1 0 0 253.44 126.816 126.816 0 0 0 126.528-126.72 126.944 126.944 0 0 0-126.528-126.72z"  horiz-adv-x="1024" />

    
    <glyph glyph-name="video_icon_collect" unicode="&#58932;" d="M806.411711-127.450805c-14.423772 0-30.622078 4.277081-45.637361 12.103229l-214.445545 111.3406-215.76507-111.158597c-13.650257-7.553142-29.348054-11.511717-45.273354-11.511717-20.748391-0.091002-40.950772 6.779628-57.604086 19.565369-30.21257 23.523944-45.682862 64.247212-38.539227 101.375912l44.135832 237.696484-169.12669 163.666587a111.022094 111.022094 0 0 0-26.299496 104.606473l0.318506 1.228523c12.285232 38.220721 42.770807 65.066227 79.808505 70.207824l235.011933 44.363337 105.47099 222.453696c16.926319 35.217664 51.41597 57.831591 87.816656 57.831591 38.038717 0 73.392884-23.478443 88.226164-58.468603l105.106983-221.771183 235.102934-42.634304c37.310704-5.642106 67.932781-33.443131 78.261477-71.072341a105.607492 105.607492 0 0 0-24.433961-104.924979l-0.591511-0.591511-168.671682-164.940611 42.634304-238.105991a104.196965 104.196965 0 0 0-38.084218-100.556897c-16.289307-13.559256-36.58269-20.884894-57.422083-20.702891z m-259.991904 203.707343l227.822797-118.302232c6.688626-3.503566 14.378271-5.687607 19.656371-5.687607a32.214608 32.214608 0 0 1 21.2034 7.371139l1.046519 0.910017a43.316817 43.316817 0 0 1 16.380309 41.815289l-45.819364 256.442837 181.366421 177.316845a44.135833 44.135833 0 0 1 10.010189 43.908328l-0.500509 1.638031a37.811213 37.811213 0 0 1-31.031586 28.028528l-1.001019 0.182004-250.937233 45.546359-112.93313 238.196993a39.312742 39.312742 0 0 1-35.399668 22.932432c-14.742278 0-28.847544-9.55518-36.03668-24.38846l-112.205116-236.604462-252.211257-47.593898c-15.333789-2.002038-27.255014-12.558237-32.760618-29.029548-3.867573-15.060784 0.728014-33.215627 11.375214-44.499839l181.548425-175.678814-47.593898-256.579339c-2.866554-14.83328 3.867573-31.896102 16.380309-41.678787a37.310704 37.310704 0 0 1 22.977933-7.598643 37.492707 37.492707 0 0 1 18.291345 4.641088l0.773515 0.455008 229.597331 118.302232z"  horiz-adv-x="1092" />

    
    <glyph glyph-name="video_icon_comments" unicode="&#58933;" d="M361.95178 395.6313c0 33.779789-26.114718 61.053181-58.557577 60.518408-31.95265 0-58.067369-27.228828-58.067369-60.518408 0-33.824354 26.114718-60.562973 58.067369-60.562974 32.442858 0 58.557577 27.273392 58.557577 60.562974zM1030.461833 429.411089h7.263992C1037.725825 686.681173 807.773697 896 524.611716 896 241.449735 896 11.542171 686.681173 11.542171 429.411089c0-151.830795 81.285403-294.124815 217.295848-381.337279v-140.24406c0-13.101924 6.818348-25.223431 17.914875-31.284185a30.749412 30.749412 0 0 1 15.998607-4.545565 32.442858 32.442858 0 0 1 18.850727 6.060754l63.905301 43.405692c1.470624 0.980416 2.406476 2.005396 3.8771 3.030377l69.698668 48.396901c34.849334-6.550962 70.188876-10.071547 105.528419-10.561754 282.671773 0 513.114109 209.318827 513.114109 466.588911h-7.263992v0.445644zM280.176169 99.501088l-9.224824 5.570546c-120.011837 74.155105-191.18113 194.701715-191.18113 324.339455 0 217.919749 199.425537 395.464183 444.841501 395.464183s444.841501-177.544434 444.8415-395.464183c0-217.919749-199.425537-395.464183-444.8415-395.464183-35.339542 0-71.169292 4.010793-106.018627 11.586735a32.977631 32.977631 0 0 1-25.62451-5.035773l-84.71686-59.003221c-0.980416-1.02498-2.406476-1.515188-3.386892-2.540169l-7.754199-5.525981v94.83297a36.097136 36.097136 0 0 1-16.934459 31.239621zM762.763687 351.735399c32.442858 0 58.067369 27.228828 58.067369 61.053181 0 33.245017-26.114718 60.518409-58.067369 60.518409-32.442858 0-58.067369-27.273392-58.067369-61.053181-0.490208-33.289581 25.62451-60.518409 58.067369-60.518409z m-228.481504 0c32.442858 0 58.111933 27.228828 58.111933 61.053181 0 33.245017-26.159283 60.518409-58.602141 60.518409-32.398294 0-58.067369-27.273392-58.067369-61.053181 0.445644-33.779789 26.604926-60.518409 58.557577-60.518409z"  horiz-adv-x="1083" />

    
    <glyph glyph-name="video_icon_single_collect" unicode="&#58934;" d="M756.16-96c-13.504 0-28.704 4.032-42.784 11.328l-201.088 104.448-202.336-104.256c-12.8-7.104-27.488-10.816-42.432-10.816a88.032 88.032 0 0 0-54.016 18.368c-28.32 22.08-42.816 60.256-36.128 95.04l41.376 222.912-158.592 153.472a104.096 104.096 0 0 0-24.64 98.08l0.288 1.152c11.52 35.872 40.128 61.024 74.816 65.856l220.384 41.6 98.88 208.576C445.824 842.784 478.144 864 512.32 864c35.648 0 68.8-22.016 82.688-54.848l98.592-207.904 220.416-40c34.976-5.28 63.712-31.36 73.44-66.656a99.04 99.04 0 0 0-22.976-98.4l-0.544-0.544-158.144-154.656 39.968-223.296a97.696 97.696 0 0 0-35.712-94.272A82.88 82.88 0 0 0 756.16-96z m-243.808 191.04l213.664-110.944c6.272-3.296 13.504-5.344 18.432-5.344a30.208 30.208 0 0 1 19.904 6.944l0.96 0.8a40.64 40.64 0 0 1 15.392 39.232l-42.976 240.448 170.048 166.272c10.432 11.008 13.984 26.72 9.376 41.216l-0.48 1.504a35.456 35.456 0 0 1-29.056 26.304l-0.96 0.16-235.296 42.72-105.92 223.36c-5.12 12.448-19.072 21.504-33.152 21.504-13.856 0-27.104-8.992-33.792-22.88l-105.248-221.888-236.512-44.608c-14.4-1.888-25.536-11.776-30.688-27.232-3.648-14.112 0.672-31.136 10.688-41.728l170.24-164.736L242.24 25.6c-2.656-13.92 3.68-29.92 15.424-39.072 5.888-4.608 13.504-7.136 21.504-7.136 6.144 0 12.064 1.504 17.152 4.352l0.736 0.448 215.264 110.88z"  horiz-adv-x="1024" />

    
    <glyph glyph-name="video_icon_single_comments" unicode="&#58935;" d="M343.424 390.08c0 31.36-24.8 56.64-55.584 56.192-30.304 0-55.104-25.28-55.104-56.224 0-31.36 24.8-56.192 55.104-56.192 30.784 0 55.584 25.28 55.584 56.192zM977.664 421.44h6.88c0 238.848-218.144 433.184-486.816 433.184C229.12 854.624 10.944 660.288 10.944 421.44c0-140.96 77.12-273.024 206.176-354.048v-130.176c0-12.16 6.432-23.424 16.992-29.056A29.664 29.664 0 0 1 249.28-96c6.432 0 12.416 1.856 17.92 5.6l60.608 40.288c1.376 0.96 2.304 1.856 3.68 2.816l66.144 44.96c33.056-6.08 66.56-9.376 100.096-9.856 268.224 0 486.816 194.368 486.816 433.184h-6.88v0.48zM265.824 115.168l-8.736 5.12c-113.92 68.864-181.408 180.8-181.408 301.152 0 202.304 189.216 367.168 422.08 367.168 232.832 0 422.016-164.864 422.016-367.168s-189.184-367.168-422.048-367.168c-33.504 0-67.52 3.776-100.576 10.784a31.84 31.84 0 0 1-24.32-4.672l-80.384-54.816c-0.928-0.928-2.304-1.376-3.2-2.336l-7.36-5.12v88c0 12.192-5.984 22.976-16.064 29.056zM723.68 349.312c30.784 0 55.104 25.28 55.104 56.672 0 30.912-24.8 56.192-55.104 56.192-30.752 0-55.104-25.28-55.104-56.64a55.232 55.232 0 0 1 55.104-56.224z m-216.768 0c30.784 0 55.104 25.28 55.104 56.672 0 30.912-24.8 56.192-55.552 56.192-30.784 0-55.104-25.28-55.104-56.64 0.448-31.392 25.248-56.224 55.552-56.224z"  horiz-adv-x="1024" />

    
    <glyph glyph-name="mine_icon_share" unicode="&#58936;" d="M821.759543-128H202.057633A202.350152 202.350152 0 0 0 0 74.057633V693.759543A202.350152 202.350152 0 0 0 202.057633 895.817176H511.908588a40.404214 40.404214 0 1 0 0-80.808428H202.057633a121.50516 121.50516 0 0 1-121.212641-121.249205v-619.70191a121.50516 121.50516 0 0 1 121.212641-121.212641h619.70191a121.50516 121.50516 0 0 1 121.212641 121.212641V383.908588A40.404214 40.404214 0 1 0 1023.817176 383.908588v-309.850955A202.350152 202.350152 0 0 0 821.759543-128z m-323.306838 458.011926a40.696733 40.696733 0 0 0-28.557186 11.883593 40.148259 40.148259 0 0 0 0 57.114372L954.855776 883.970148a40.404214 40.404214 0 0 0 57.114372-57.114372L527.009891 341.858954a40.696733 40.696733 0 0 0-28.557186-11.883592zM983.412962 815.008748H767.862882A40.404214 40.404214 0 1 0 767.862882 895.817176h215.55008a40.404214 40.404214 0 1 0 0-80.808428z m0-215.513515c-22.304588 0-40.440778 18.099625-40.440778 40.404214V855.412962a40.404214 40.404214 0 1 0 80.844992 0V639.862882c0-22.304588-18.099625-40.404214-40.404214-40.404214z"  horiz-adv-x="1024" />

    


  </font>
</defs>
</svg>
