<?xml version="1.0" standalone="no"?>
<!DOCTYPE svg PUBLIC "-//W3C//DTD SVG 1.1//EN" "http://www.w3.org/Graphics/SVG/1.1/DTD/svg11.dtd" >
<!--
2013-9-30: Created.
-->
<svg>
<metadata>
Created by iconfont
</metadata>
<defs>

<font id="iconfont" horiz-adv-x="1024" >
  <font-face
    font-family="iconfont"
    font-weight="500"
    font-stretch="normal"
    units-per-em="1024"
    ascent="896"
    descent="-128"
  />
    <missing-glyph />
    
    <glyph glyph-name="icon08" unicode="&#58896;" d="M511.936 730.037333 511.936 801.333333l-200-100.032 200-99.968L511.936 687.2c233.194667 0 422.912-189.674667 422.912-422.826667 0-233.173333-189.738667-422.869333-422.912-422.869333-233.152 0-422.826667 189.717333-422.826667 422.869333 0 11.84-9.578667 21.418667-21.397333 21.418667-11.84 0-21.418667-9.578667-21.418667-21.418667 0-256.789333 208.896-465.706667 465.664-465.706667 256.832 0 465.749333 208.917333 465.749333 465.706667C977.685333 521.141333 768.768 730.037333 511.936 730.037333zM511.936 486.666667c-11.818667 0-21.397333-9.578667-21.397333-21.418667l0-227.925333c0-0.554667 0.277333-1.109333 0.32-1.642667 0.213333-2.197333 0.469333-4.437333 1.322667-6.528 1.109333-2.645333 2.666667-5.013333 4.672-6.997333l188.032-188.032c4.16-4.16 9.642667-6.250667 15.146667-6.250667s10.944 2.090667 15.146667 6.250667c8.362667 8.362667 8.362667 21.930667 0 30.314667l-181.781333 181.76L533.397333 465.226667C533.354667 477.088 523.776 486.666667 511.936 486.666667z"  horiz-adv-x="1024" />

    
    <glyph glyph-name="guanyu" unicode="&#59004;" d="M502.616282 658.462115c-202.705702 0-367.638101-164.933423-367.638101-367.639125S299.911604-76.814088 502.616282-76.814088s367.638101 164.9324 367.638101 367.637078C870.254384 493.529715 705.321984 658.462115 502.616282 658.462115zM502.616282-34.856487c-179.590238 0-325.679477 146.090263-325.679477 325.679477 0 179.590238 146.088216 325.679477 325.679477 325.679477 179.589215 0 325.679477-146.089239 325.679477-325.679477C828.295759 111.234799 682.205497-34.856487 502.616282-34.856487zM546.903951 464.90784m-32.448016 0a31.709 31.709 0 1 0 64.896032 0 31.709 31.709 0 1 0-64.896032 0ZM449.558879 107.973522c0-11.949146 9.683547-21.63474 21.630646-21.63474 3.683902 0 7.151887 0.923022 10.188037 2.547009l76.342736 19.087731c11.949146 0 21.633716 9.686616 21.633716 21.630646 0 11.9471-9.683547 21.633716-21.633716 21.633716l-57.68684-14.422478 55.140855 220.561371c1.622964 3.035126 2.545986 6.501064 2.545986 10.18292 0 11.949146-9.686616 21.63474-21.630646 21.63474-3.682879 0-7.14984-0.923022-10.18599-2.545986L449.559902 367.560722c-11.949146 0-21.633716-9.686616-21.633716-21.630646 0-11.9471 9.683547-21.633716 21.633716-21.633716l57.68377 14.421454L452.104865 118.157465C450.481901 115.123362 449.558879 111.656401 449.558879 107.973522z"  horiz-adv-x="1024" />

    
    <glyph glyph-name="sousuo1" unicode="&#58892;" d="M451.233-82.981c-248.803 0-451.233 198.042-451.233 441.49 0 243.419 202.43 441.49 451.233 441.49 248.803 0 451.233-198.071 451.233-441.49-0.029-243.449-202.43-441.49-451.233-441.49M451.233 691.339c-187.568 0-340.173-149.299-340.173-332.829s152.605-332.829 340.173-332.829 340.173 149.299 340.173 332.829-152.635 332.829-340.173 332.829M978.242-224c-17.496 0-34.992 6.524-48.333 19.573l-235.754 230.663c-26.683 26.097-26.683 68.462 0 94.588 26.712 26.097 69.983 26.097 96.666 0l235.754-230.634c26.683-26.097 26.683-68.462 0-94.588-13.371-13.078-30.837-19.602-48.333-19.602z"  horiz-adv-x="1047" />

    
    <glyph glyph-name="buzan" unicode="&#58956;" d="M868.354 440.978c63.927 0 28.024 168.147-28.023 168.147 28.024 0 0 140.119-56.053 140.119 0 56.048-56.047 84.071-112.095 84.071-236.76 0-153.487-59.247-392.338-84.071l0 28.019L167.749 777.263c-30.828 0-56.047-37.832-56.047-84.07L111.702 356.9c0-46.238 25.219-84.076 56.047-84.076l112.095 0 0 28.029-56.048 0L223.796 749.239l56.048 0 0-448.381c210.992-63.29 420.362-221.94 420.362-364.314 46.413 0 168.147 56.048 0 336.29l168.147 0C952.426 272.834 924.402 440.978 868.354 440.978L868.354 440.978z"  horiz-adv-x="1024" />

    
    <glyph glyph-name="yuedu" unicode="&#58965;" d="M561.592-55l-33.029 0-33.034 0-33.033 0c0 0-66.387 25.98-165.16 33.048-128.485 9.181-297.291 0-297.291 0L0.045 506.81c0 0 42.611 132.19 231.225 132.19 188.614 0 264.258-99.143 264.258-99.143l33.034 0c0 0 75.644 99.143 264.255 99.143 188.613 0 231.228-132.19 231.228-132.19l0-528.762c0 0-160.418 0-297.292 0C616.175-21.952 561.592-55 561.592-55zM462.496 539.857c0 0-81.902 66.096-231.225 66.096-122.066 0-165.162-66.096-165.162-66.096l0-495.713 396.387 0L462.496 539.857zM957.979 539.857c0 0-43.097 66.096-165.161 66.096-149.321 0-231.226-66.096-231.226-66.096l0-495.713 396.387 0L957.979 539.857z"  horiz-adv-x="1025" />

    
    <glyph glyph-name="yonghu" unicode="&#58968;" d="M506.075809 349.023794c-145.260076 0-263.436846 118.16774-263.436846 263.418785 0 145.260076 118.17677 263.436846 263.436846 263.436846 145.260076 0 263.436846-118.16774 263.436846-263.436846C769.512655 467.200564 651.335885 349.023794 506.075809 349.023794zM506.075809 819.003581c-113.896181 0-206.561002-92.664821-206.561002-206.561002S392.179628 405.899638 506.075809 405.899638c113.905212 0 206.561002 92.646759 206.561002 206.54294S619.981021 819.003581 506.075809 819.003581zM514.754388 274.808854c-250.902125 0-455.024817-174.88103-455.024817-389.840656l28.437922 0c0 199.607302 190.991939 361.411765 426.586895 361.411765s426.586895-161.804462 426.586895-361.411765l20.156698 0 8.281224 0C969.788235 99.927824 765.647482 274.808854 514.754388 274.808854zM514.754388 217.942041c219.547262 0 398.148973-149.360049 398.148973-332.964812l28.437922 0c0 199.607302-190.991939 361.411765-426.586895 361.411765S88.167493 84.5755 88.167493-115.031802l28.437922 0C116.605415 68.572961 295.207126 217.942041 514.754388 217.942041z"  horiz-adv-x="1024" />

    
    <glyph glyph-name="sousuo" unicode="&#59075;" d="M794.028305 108.19442c79.993892 76.364225 129.980353 184.964642 129.980353 305.462017 0 231.145427-183.919846 418.527119-410.79911 418.527119S102.410438 644.802888 102.410438 413.65746c0-231.147474 183.919846-418.527119 410.79911-418.527119 86.3476 0 166.468382 27.146267 232.599546 73.512271l123.484406-125.924991c5.868661-6.167466 16.090467-6.824429 22.835078-1.454118l24.424272 19.459191c6.744611 5.364171 7.455809 14.721283 1.591241 20.902052L794.028305 108.19442zM165.609829 413.653367c0 195.584514 155.62543 354.136599 347.598696 354.136599s347.598696-158.551062 347.598696-354.136599c0-104.462167-44.405349-198.348464-115.021663-263.167748-3.925403 0.106424-7.902994-1.071402-11.099802-3.618411l-24.424272-19.449981c-3.094478-2.467191-4.90266-5.774517-5.40408-9.226129-54.945403-37.06722-120.816646-58.673307-191.650925-58.673307C321.235258 59.518814 165.609829 218.0709 165.609829 413.653367z"  horiz-adv-x="1024" />

    
    <glyph glyph-name="gou" unicode="&#58939;" d="M870.4 563.2 780.8 652.8 416 294.4 243.2 460.8 153.6 371.2 416 115.2 416 115.2 416 115.2Z"  horiz-adv-x="1024" />

    
    <glyph glyph-name="jubao" unicode="&#58964;" d="M1108.468296 71.109453C1159.055032-14.219597 1097.227863-128 990.429373-128L130.432879-128C29.258031-128-32.574625-14.219597 18.012112 71.109453L450.825613 827.733426C473.306472 873.245864 518.276424 896 563.240888 896 608.209469 896 653.173934 873.245864 675.660283 827.733426L1108.468296 71.109453 1108.468296 71.109453 1108.468296 71.109453 1108.468296 71.109453ZM1020.384123 18.889359 1019.583053 20.264847 586.77504 776.888823 583.854223 782.37477C580.333998 789.499726 573.244216 793.6 563.240888 793.6 553.240806 793.6 546.151071 789.499788 542.636068 782.38367L539.710577 776.888337 106.096287 18.889359C95.301134 0.680233 109.937021-25.6 130.432879-25.6L990.429373-25.6C1016.30634-25.6 1031.298263 0.479524 1020.384123 18.889359L1020.384123 18.889359 1020.384123 18.889359 1020.384123 18.889359ZM558.08319 588.8C532.482248 588.8 512 573.180615 512 553.655191L512 316.748621C512 297.223199 532.482248 281.6 558.08319 281.6L568.321812 281.6C593.922749 281.6 614.4 297.223199 614.4 316.748621L614.4 553.655191C614.4 573.180615 593.922749 588.8 568.321812 588.8L558.08319 588.8 558.08319 588.8 558.08319 588.8 558.08319 588.8ZM512 129.114824C512 115.998295 517.522432 102.967368 526.999818 93.694331 536.477199 84.422513 549.797038 79.024753 563.200625 79.024753 576.602962 79.024753 589.927798 84.422513 599.405184 93.694331 608.882565 102.967368 614.4 115.998295 614.4 129.114824 614.4 142.227681 608.882565 155.258609 599.405184 164.530427 589.927798 173.80224 576.602962 179.2 563.200625 179.2 549.797038 179.2 536.477199 173.80224 526.999818 164.530427 517.522432 155.258609 512 142.227681 512 129.114824L512 129.114824 512 129.114824 512 129.114824Z"  horiz-adv-x="1127" />

    
    <glyph glyph-name="gengduoxiao" unicode="&#58932;" d="M512 640C547.346224 640 576 668.653776 576 704 576 739.346224 547.346224 768 512 768 476.653776 768 448 739.346224 448 704 448 668.653776 476.653776 640 512 640ZM512 320C547.346224 320 576 348.653776 576 384 576 419.346224 547.346224 448 512 448 476.653776 448 448 419.346224 448 384 448 348.653776 476.653776 320 512 320ZM512 0C547.346224 0 576 28.653779 576 64 576 99.346221 547.346224 128 512 128 476.653776 128 448 99.346221 448 64 448 28.653779 476.653776 0 512 0Z"  horiz-adv-x="1024" />

    
    <glyph glyph-name="xyj" unicode="&#58897;" d="M237.239 738.941c-11.795 11.292-29.814 1.757-29.814-15.777v-669.346c0-17.535 18.019-27.072 29.814-15.777l349.525 334.672c8.607 8.241 8.607 23.314 0 31.556l-349.525 334.672zM735.355 672.76h81.22v-568.54h-81.22v568.54z"  horiz-adv-x="1024" />

    
    <glyph glyph-name="ai-link" unicode="&#58908;" d="M333.062 162.938c-58.348-52.21-97.040-49.051-136.467-9.492l-45.156 48.463c-39.428 39.542-39.428 103.667 0 143.226l193.261 193.849c39.427 39.559 103.356 39.559 142.784 0l35.68-35.794c30.458-30.556 37.399-75.763 20.802-112.998l86.286-66.040c59.149 59.33 59.149 155.518 0 214.831l-107.088 107.416c-59.134 59.33-155.010 59.33-214.161 0l-264.652-265.471c-59.134-59.314-59.134-155.502 0-214.831l107.088-107.415c59.134-59.314 155.027-59.314 214.177 0l102.162 105.647-72.98 70.034-61.735-71.425zM987.196 610.605l-107.073 107.415c-59.149 59.33-155.027 59.33-214.177 0 0 0 4.223 1.064-57.989-61.343l71.114-68.168 31.605 34.877c39.428 39.542 103.357 39.542 142.784 0l35.696-35.811c39.428-39.542 39.428-103.667 0-143.226l-174.338-181.198c-39.428-39.542-103.341-39.542-142.769 0l-29.395 48.463c-61.883 46.253-42.865 57.317-37.612 88.545l-78.495 77.71c-59.15-59.33-59.15-155.518 0-214.831l107.073-107.433c59.149-59.313 155.027-59.313 214.177 0l239.398 240.167c84.387 97.302 0 214.832 0 214.832z"  horiz-adv-x="1025" />

    
    <glyph glyph-name="arrows-copy-copy" unicode="&#58963;" d="M253.055 359.047c-14.441 14.441-14.534 37.761-0.209 52.086l470.781 470.78c14.325 14.325 37.646 14.231 52.086-0.209v0c14.441-14.441 14.534-37.761 0.209-52.086l-470.781-470.781c-14.325-14.323-37.646-14.23-52.086 0.21v0zM774.527-111.903c-14.441-14.441-37.761-14.534-52.086-0.209l-470.78 470.781c-14.325 14.325-14.231 37.646 0.209 52.086v0c14.441 14.441 37.761 14.534 52.086 0.209l470.78-470.78c14.325-14.326 14.231-37.647-0.209-52.087v0z"  horiz-adv-x="1024" />

    
    <glyph glyph-name="asmkticon0242" unicode="&#59396;" d="M819.2 348.8c51.2 44.8 81.92 112 76.16 186.24-8.32 110.72-99.2 199.68-209.92 206.08-67.84 3.84-129.92-26.24-173.44-70.4-43.52 44.16-105.6 74.88-173.44 70.4-110.72-6.4-201.6-95.36-209.92-206.08C122.88 460.8 153.6 392.96 204.8 348.8l263.04-295.68 0 0c10.24-13.44 26.24-25.6 44.16-25.6 17.92 0 34.56 12.8 44.16 26.24l0 0L819.2 348.8z"  horiz-adv-x="1024" />

    
    <glyph glyph-name="jiantou" unicode="&#58890;" d="M774.641637 406.440773l-479.095799 479.130798c-13.942238 13.90624-36.478005 13.90624-50.419243 0-13.942238-13.942238-13.942238-36.513003 0-50.455241l455.705079-455.740077-448.18049-448.216488c-13.550259-13.515261-13.550259-35.444062 0-48.958323 13.514261-13.585257 35.444062-13.585257 48.992321 0l465.474544 465.438546c1.818901 1.818901 2.709852 4.02978 4.02978 6.132665 1.10494 0.819955 2.460865 1.247932 3.494809 2.281875 13.90624 13.90624 13.90624 36.478005 0 50.384245z"  horiz-adv-x="1024" />

    
    <glyph glyph-name="youxiang" unicode="&#58928;" d="M204.8 682.666667 819.2 682.666667C861.132245 682.666667 895.495996 649.554491 895.994509 608.896416L512.190895 400.387379 128.387263 608.693967C128.769671 649.444518 162.798178 682.666667 204.8 682.666667ZM128.348162 528.85543 128 160C128 118.933333 162.56 85.333333 204.8 85.333333L819.2 85.333333C861.44 85.333333 896 118.933333 896 160L896 529.040061 521.193963 330.279283C515.463194 327.240239 508.536806 327.240239 502.806037 330.279283L128.348162 528.85543Z"  horiz-adv-x="1024" />

    
    <glyph glyph-name="jiantou9" unicode="&#58899;" d="M944.083879 606.463698c14.264888-18.286482 15.462157-41.208541 2.670829-51.196009l-417.191704-325.421604c-2.885723-2.261507-12.156878-7.828292-13.732769-9.578146-15.544021-17.181311-37.893029-22.338774-49.947576-11.461029l-392.908648 354.309538c-12.054547 10.887978-9.271154 33.666774 6.272867 50.889017 15.544021 17.21201 37.893029 22.349007 49.988508 11.471262l357.584118-322.443783 408.258241 318.463122C907.910005 631.483534 929.84969 624.739946 944.083879 606.463698z"  horiz-adv-x="1024" />

    
    <glyph glyph-name="shipin" unicode="&#58948;" d="M849.5-66l-675 0c-66.284 0-112.5 46.216-112.5 112.5l0 675c0 66.284 46.216 112.5 112.5 112.5l675 0c66.284 0 112.5-46.216 112.5-112.5l0-675c0-66.284-46.216-112.5-112.5-112.5zM99.5 684l0-75 150 0-72.858 182.135c-46.619-13.532-77.142-53.522-77.142-107.135zM249.5 796.5l75.001-187.5 112.481 0-74.982 187.5-112.5 0zM436.982 796.5l75.018-187.5 112.5 0-75 187.5-112.519 0zM624.5 796.5l75-187.5 112.5 0-75 187.5-112.5 0zM924.5 684c0 66.284-46.216 112.5-112.5 112.5l75.001-187.5 37.499 0 0 75zM924.5 571.5l-824.999 0 0-487.5c0-66.284 46.216-112.5 112.5-112.5l600 0c66.284 0 112.5 46.216 112.5 112.5l0 487.5zM362 459l337.5-187.5-337.5-187.5 0 374.999z"  horiz-adv-x="1024" />

    
    <glyph glyph-name="bofangcishu" unicode="&#58975;" d="M384.2048 147.6608l364.2368 236.3392L384.2048 620.2368 384.2048 147.6608zM781.6192 856.576 242.4832 856.576c-133.7344 0-242.3808-105.0624-242.3808-234.2912l0-476.4672c0-129.2288 108.7488-234.3936 242.3808-234.3936l539.136 0c133.7344 0 242.3808 105.1648 242.3808 234.3936L1024 622.2848C1024 751.4112 915.2512 856.576 781.6192 856.576zM945.2544 147.6608c0-82.7392-78.5408-157.4912-157.4912-157.4912 0 0-486.7072-2.6624-545.5872-2.6624-84.6848 0-163.328 71.8848-163.328 160.1536L78.848 620.2368c0 88.3712 71.0656 157.4912 157.4912 157.4912l551.424 0c86.528 0 157.4912-72.6016 157.4912-157.4912L945.2544 147.6608 945.2544 147.6608z"  horiz-adv-x="1024" />

    
    <glyph glyph-name="bofang1" unicode="&#59017;" d="M512 843.518718c-249.221108 0-451.255521-202.034413-451.255521-451.255521s202.033389-451.255521 451.255521-451.255521 451.255521 202.034413 451.255521 451.255521S761.221108 843.518718 512 843.518718zM703.246719 366.590492 417.663448 201.709257c-19.763113-11.409864-44.466748 2.852978-44.466748 25.672706L373.196701 557.144432c0 22.819728 24.703635 37.08257 44.466748 25.672706l285.583271-164.881235C723.009831 406.526039 723.009831 378.000356 703.246719 366.590492z"  horiz-adv-x="1024" />

    
    <glyph glyph-name="zan1" unicode="&#58904;" d="M868.354104 328.881658c56.047504 0 84.071767 168.143535 0 168.143535L700.206476 497.025193c168.147628 280.242635 46.413076 336.290139 0 336.290139 0-142.373615-209.370495-301.023938-420.36293-364.314403L279.843546 20.619876l-56.047504 0L223.796042 469.006046l56.047504 0 0 28.02938L167.749562 497.035426c-30.828123 0-56.047504-37.83777-56.047504-84.076884l0-336.291163c0-46.239114 25.219381-84.070744 56.047504-84.070744l112.095008 0 0 28.018124c238.850923-24.823362 155.578358-84.070744 392.338666-84.070744 56.047504 0 112.095008 28.02324 112.095008 84.070744 56.05262 0 84.076884 140.119271 56.05262 140.119271C896.378367 160.73403 932.281065 328.881658 868.354104 328.881658L868.354104 328.881658zM868.354104 328.881658"  horiz-adv-x="1024" />

    
    <glyph glyph-name="renwu" unicode="&#58900;" d="M861.588238 655.866127v65.792823c0 36.191275-29.439775 65.631049-65.631049 65.63105h-21.877358c-36.191275 0-65.631049-29.439775-65.631049-65.63105v-65.631049H314.659414v65.631049c0 36.191275-29.439775 65.631049-65.631049 65.63105h-21.877358c-36.191275 0-65.631049-29.439775-65.631049-65.63105v-65.792823c-36.317212-0.868255-65.631049-30.539428-65.63105-67.061417v-543.745565c0-37.06772 30.155471-67.223191 67.223191-67.223191h696.886045c37.06772 0 67.223191 30.155471 67.223191 67.223191V588.80471c-0.001024 36.52199-29.315885 66.193162-65.633097 67.061417z m-109.385765 65.792823c0 12.060345 9.817012 21.877358 21.877358 21.877358h21.877358c12.060345 0 21.877358-9.817012 21.877358-21.877358v-175.016814c0-12.060345-9.817012-21.877358-21.877358-21.877358h-21.877358c-12.060345 0-21.877358 9.817012-21.877358 21.877358V721.65895z m-546.928824 0c0 12.060345 9.817012 21.877358 21.877358 21.877358h21.877358c12.060345 0 21.877358-9.817012 21.877358-21.877358v-175.016814c0-12.060345-9.817012-21.877358-21.877358-21.877358h-21.877358c-12.060345 0-21.877358 9.817012-21.877358 21.877358V721.65895z m678.191947-676.600829c0-12.935767-10.532708-23.468476-23.468476-23.468475H163.111076c-12.935767 0-23.468476 10.532708-23.468476 23.468475V588.80471c0 12.402323 9.677764 22.593054 21.877358 23.415233v-65.577807c0-36.191275 29.439775-65.631049 65.631049-65.631049h21.877358c36.191275 0 65.631049 29.439775 65.631049 65.631049v65.631049h393.789368v-65.631049c0-36.191275 29.439775-65.631049 65.631049-65.631049h21.877358c36.191275 0 65.631049 29.439775 65.631049 65.631049v65.577807c12.19857-0.82218 21.877358-11.012911 21.877358-23.415233v-543.746589zM706.719439 417.727806l-48.01715 44.741741-182.28128-195.621482-111.468348 122.615387-48.563905-44.148911 159.469116-172.685427z"  horiz-adv-x="1024" />

    
    <glyph glyph-name="shibai-01" unicode="&#58913;" d="M511.805 832.079c-247.423 0-447.999-200.576-447.999-448s200.576-448 447.999-448c247.424 0 448.001 200.576 448.001 448 0 247.423-200.577 448-448.001 448z m0-856c-225.332 0-407.999 182.668-407.999 408s182.667 408 407.999 408c225.332 0 408.001-182.667 408.001-408s-182.669-408-408.001-408zM531.625 256.035l22.142 448.181h-84.014l22.122-448.181zM512.091 124.424m-59.997 0a59.997 59.997 0 1 1 119.994 0 59.997 59.997 0 1 1-119.994 0Z"  horiz-adv-x="1024" />

    
    <glyph glyph-name="fuzhiyaoqingma" unicode="&#59207;" d="M989.866667 622.933333H298.666667c-17.066667 0-34.133333-17.066667-34.133334-34.133333v-682.666667c0-17.066667 17.066667-34.133333 34.133334-34.133333h691.2c17.066667 0 34.133333 17.066667 34.133333 34.133333v682.666667c0 17.066667-17.066667 34.133333-34.133333 34.133333z m-34.133334-682.666666H332.8V554.666667h622.933333v-614.4zM149.333333 170.666667h-85.333333V832H725.333333v-98.133333c0-17.066667 12.8-34.133333 34.133334-34.133334 17.066667 0 34.133333 12.8 34.133333 34.133334v128c0 17.066667-12.8 34.133333-34.133333 34.133333H34.133333C12.8 896 0 883.2 0 861.866667v-725.333334c0-17.066667 12.8-34.133333 34.133333-34.133333h119.466667c17.066667 0 34.133333 12.8 34.133333 34.133333S170.666667 170.666667 149.333333 170.666667z"  horiz-adv-x="1024" />

    
    <glyph glyph-name="bofang" unicode="&#58889;" d="M796.5 436.8c29-16.7 39-53.8 22.2-82.8-5.3-9.2-13-16.9-22.2-22.2l-497-350.4c-29-16.8-66.1-6.8-82.9 22.2-5.3 9.3-8.2 19.8-8.1 30.5l0.6 703.1c-0.1 33.5 27.1 60.7 60.6 60.8 10.7 0 21.2-2.8 30.5-8.1l496.3-353.1z"  horiz-adv-x="1024" />

    
    <glyph glyph-name="xinggan" unicode="&#58891;" d="M783.1 545.4c-15.3 52.9-153.4 213.5-175 223.1-53.6 35.8-79.6-9.1-66.6 28.4-26 0-23.5-37.5-23.5-37.5s-22.9 37.5-74 37.5-40.7-25.7-92.1-58.5c-51.4-32.8-15.1-94.7-44.8-149.5-29.7-54.8 30.2-71.9-6.6-176.6-14.6-41.6 43.5-148.3 53.6-74.7 0 18.4 0.1 34.3 1.1 42.2 0.8-18 0.3-31.9-1.1-42.2-0.1-43.1 0.1-100.2-10.4-101.3-15-1.6-54.6 158.5-74.1 171.3-19.6 12.8-52.3 21.8-52.3 21.8s-12.7 21.6-28.6 19.9c-14.9-2.5-21.4 7-35.2 2.7-12.1-3.8 7.2-24.3 3.4-29.5-3.8-5.2-36.8 10.4-36.8 10.4 2-10.5-11.8 32.3-18.8 31.7-13.4-0.6 1.7-44.9 12.8-57.8 12.3-14.3 61.2-37.7 61.2-37.7s45.8-13 66.2-37.8c20.4-24.8 18.8-187.3 86.1-260.9 12.5-8.8 21.2-4.5 40.1 0 30.4 6.7 52.5 95.3 55.9 106.5 13.1 39.6 7.9 50.8 15.8 50.1s47.9-157.4 52.2-180c4.3-22.6-27.1-40.1-27.1-40.1h216.9c29.3 38.1 26.2 200 25.7 213.1-0.1-0.2-0.5-0.9-0.5-0.9s-29.9-37-86.3-20.8c-42.4 13.6-50.2 38.5-50.2 38.5s27-23.7 59.4-29.3c31.3-3.6 57.3 1.7 76.7 12 0.7 0.4 0.9 0.5 0.9 0.5 48.2 26.1 60.4 82.4 50.2 103.4-14.3 29.6-117.2 65.9-117.2 65.9s-39.9 42.1-37 52.5c8.9 31.9 195.4 50.8 180 103.6z m-201.8-6.3l2.8 36.2s-2.7 16-2.2 40.1c0.4 24.1-12.8 47.4-12.8 47.4l-14.5 41.8 20.1 8.4 24.5-2.8s90-122.6 82-137.6-32.9-18.8-32.9-18.8l-21.2-8.3-45.8-6.4z"  horiz-adv-x="1024" />

    
    <glyph glyph-name="icon-system-fi-voice" unicode="&#58940;" d="M845.814 623.826a31.665 31.665 0 0 1-19.985 7.144c-9.572 0-18.55-4.265-24.63-11.701-5.357-6.551-7.836-14.798-6.98-23.22 0.858-8.445 4.959-16.045 11.544-21.399 57.693-46.983 90.781-116.522 90.781-190.788 0-74.336-33.108-143.874-90.833-190.786-6.568-5.34-10.659-12.925-11.521-21.358-0.861-8.427 1.607-16.686 6.956-23.264 5.536-6.766 13.487-10.901 22.108-11.574l0.104-0.209h2.457c7.313 0 14.221 2.454 19.993 7.109C918.379 202.86 960 290.346 960 383.80499999999995c0 93.517-41.622 181.003-114.186 240.021zM740.803 494.559a31.664 31.664 0 0 1-19.986 7.144c-9.571 0-18.548-4.265-24.629-11.7-5.357-6.551-7.836-14.797-6.981-23.218 0.858-8.445 4.959-16.046 11.547-21.404 18.608-15.118 29.28-37.541 29.28-61.519 0-23.926-10.674-46.35-29.281-61.52-13.559-11.024-15.61-31.037-4.565-44.622 5.22-6.379 12.587-10.418 20.637-11.424v-0.357h3.976c7.313 0 14.221 2.454 19.993 7.109 33.488 27.26 52.694 67.63 52.694 110.759 0.003 43.175-19.204 83.546-52.685 110.752zM520.325 792.731l-3.976-0.056v-0.149c-13.304-1.002-26.555-7.025-39.449-17.946L250.562 582.2090000000001h-99.331c-48.1 0-87.231-39.131-87.231-87.23v-222.012c0-48.099 39.131-87.23 87.231-87.23h99.331l226.336-192.37c14.119-12.009 28.73-18.097 43.427-18.097 16.432 0 31.19 7.966 40.498 21.866 7.07 10.637 10.655 24.076 10.655 39.944V730.866c0.001 42.736-25.691 61.865-51.153 61.865z"  horiz-adv-x="1024" />

    
    <glyph glyph-name="fenxiang" unicode="&#59181;" d="M872.2432 877.3632c-83.7632 0-151.7568-67.9936-151.7568-151.7568 0-14.5408 2.1504-28.5696 5.9392-41.8816l-443.392-185.9584c-26.2144 45.4656-75.1616 76.0832-131.3792 76.0832C67.9936 573.8496 0 505.856 0 421.9904 0 337.92 67.9936 270.0288 151.7568 270.0288c43.9296 0 83.3536 18.7392 111.104 48.64l285.7984-205.4144c-11.1616-21.0944-17.5104-45.1584-17.5104-70.7584 0-83.8656 67.6864-151.7568 151.4496-151.7568 83.7632 0 151.7568 67.9936 151.7568 151.7568 0 83.7632-67.9936 151.7568-151.7568 151.7568-44.544 0-84.5824-19.3536-112.2304-49.9712L285.0816 349.2864c11.776 21.6064 18.432 46.3872 18.432 72.704 0 14.1312-2.048 27.7504-5.632 40.7552l443.6992 186.0608c26.3168-44.8512 74.9568-75.0592 130.7648-75.0592 83.7632 0 151.7568 67.9936 151.7568 151.7568-0.1024 83.8656-67.9936 151.8592-151.8592 151.8592z"  horiz-adv-x="1024" />

    
    <glyph glyph-name="free-svip" unicode="&#58880;" d="M852.992 468.48c-10.24 7.168-24.064 11.264-43.52 11.264h-65.536v-92.16h65.536c20.48 0 34.304 4.096 43.52 11.264 9.216 8.192 14.336 19.456 14.336 35.328-0.512 15.872-5.12 27.136-14.336 34.304zM902.656 609.28h-780.8c-67.072 0-121.856-54.784-121.856-121.856v-207.36c0-67.072 54.784-121.856 121.856-121.856h780.8c67.072 0.512 121.856 55.296 121.856 122.368v207.36c0 66.56-54.784 121.344-121.856 121.344zM305.664 268.288c-18.432-13.312-43.52-20.48-76.8-20.48-31.232 0-56.832 7.168-74.752 19.456-20.992 15.36-33.28 39.424-35.328 72.704h39.424c3.072-20.48 10.24-35.328 22.016-44.544 10.24-8.192 26.112-12.288 48.64-12.288 20.48 0 35.328 3.072 47.616 10.24 11.264 6.144 17.408 15.36 17.408 27.136 0 14.336-9.216 26.112-25.088 34.304-6.144 2.048-23.040 8.192-52.736 17.408-32.256 10.24-52.736 17.408-60.928 20.992-20.48 12.288-30.208 29.184-30.208 52.736 0 23.040 10.24 41.472 29.184 54.784 18.432 13.312 41.472 19.456 69.632 19.456 30.208 0 54.784-6.144 71.68-19.456 18.432-14.336 28.16-35.328 31.232-63.488h-39.424c-3.072 16.384-10.24 29.184-20.48 36.352-10.24 7.168-24.064 11.264-44.544 11.264-17.408 0-30.208-3.072-39.424-8.192-12.288-5.12-17.408-15.36-17.408-28.16 0-12.288 6.144-20.992 19.456-28.16 6.144-3.072 21.504-9.216 45.568-16.384 35.328-10.24 58.88-19.456 68.608-25.088 22.016-13.312 33.28-32.256 33.28-54.784 0.512-23.552-8.704-43.008-26.624-55.808zM489.472 251.904h-48.64l-95.232 262.144h43.52l74.752-217.6h1.024l74.752 217.6h43.52l-93.696-262.144zM651.776 250.88h-39.424v263.168h39.424v-263.168zM811.52 354.304h-67.584v-103.424h-40.448v263.168h109.056c62.976 0 94.208-26.112 94.208-78.848-0.512-53.76-32.768-80.896-95.232-80.896z"  horiz-adv-x="1024" />

    
    <glyph glyph-name="zhucechenggong" unicode="&#58916;" d="M984.015238 817.980952C744.106667 670.72 569.539048 484.449524 491.52 390.826667L299.398095 541.013333l-84.845714-68.266666L546.133333 135.314286c57.539048 146.285714 237.958095 432.030476 458.361905 635.855238L984.015238 817.980952zM902.095238 615.131429c39.984762-67.291429 63.390476-146.285714 63.390476-231.131429C965.485714 134.339048 761.660952-69.485714 512-69.485714S58.514286 134.339048 58.514286 384 262.339048 837.485714 512 837.485714c116.053333 0 222.354286-43.885714 302.32381-116.053333 14.628571 12.678095 30.232381 25.35619 45.83619 37.059048C769.462857 844.312381 646.582857 896 512 896 229.180952 896 0 666.819048 0 384S229.180952-128 512-128 1024 101.180952 1024 384c0 102.4-30.232381 197.973333-81.92 277.942857-13.653333-15.60381-27.306667-31.207619-39.984762-46.811428z"  horiz-adv-x="1024" />

    
    <glyph glyph-name="biaoqian" unicode="&#58888;" d="M781.478 315.166c0 16.354-5.829 30.715-17.477 43.006L426.004 695.641c-11.983 11.982-28.055 22.146-48.16 30.518-20.213 8.314-38.637 12.515-55.323 12.515H125.859c-16.349 0-30.573-5.963-42.559-17.945-11.983-11.985-17.918-26.181-17.918-42.531v-196.634c0-16.715 4.142-35.14 12.542-55.325 8.345-20.16 18.479-36.063 30.463-47.765l338.001-338.392c11.648-11.647 25.815-17.498 42.5-17.498 16.407 0 30.742 5.851 43.006 17.498L764 272.608c11.648 11.677 17.478 25.872 17.478 42.558z m-522.01 229.478c-11.87-11.843-26.095-17.751-42.837-17.751-16.629 0-30.965 5.908-42.779 17.751-11.816 11.816-17.751 26.067-17.751 42.752 0 16.715 5.935 30.995 17.751 42.811 11.814 11.816 26.15 17.724 42.779 17.724 16.742 0 30.967-5.908 42.837-17.724 11.757-11.816 17.696-26.096 17.696-42.811 0-16.686-5.939-30.937-17.696-42.752zM945.547 358.172l-338 337.469c-11.986 11.982-28.055 22.146-48.215 30.518-20.215 8.314-38.637 12.515-55.379 12.515H398.177c16.686 0 35.104-4.2 55.265-12.515 20.159-8.372 36.229-18.536 48.213-30.518l337.943-337.469c11.647-12.291 17.529-26.626 17.529-43.006 0-16.686-5.882-30.881-17.529-42.559L617.459 50.469c9.462-9.803 17.809-16.854 25.028-21.281 7.284-4.396 16.575-6.604 27.892-6.604 16.348 0 30.795 5.851 43.058 17.498l232.11 232.526c11.592 11.678 17.471 25.873 17.471 42.559 0 16.353-5.879 30.714-17.471 43.005z"  horiz-adv-x="1024" />

    
    <glyph glyph-name="mima" unicode="&#59407;" d="M839.00824-60.824041H201.514061c-35.208896 0-63.750953 26.643823-63.750952 59.515488V444.938907c0 32.839943 28.542056 59.483766 63.750952 59.483766h637.495203c35.204803 0 63.750953-26.643823 63.750953-59.483766v-446.24746c0-32.871665-28.54615-59.519582-63.745837-59.515488h-0.00614z m-318.749647 416.488692c-52.825113 0-95.620801-39.938618-95.620801-89.242533 0-32.937157 19.363-61.419861 47.812958-76.856436v-84.917018c0-25.647123 21.412682-46.472428 47.813983-46.472427 26.39209 0 47.813982 20.826328 47.813982 46.472427v84.917018c28.449959 15.437597 47.808866 43.920302 47.808865 76.856436 0 49.298799-42.796712 89.23844-95.621824 89.23844l-0.007163 0.004093z m0 386.762671c-105.613386 0-191.248765-79.907934-191.248766-178.488137h-95.618754c0 147.857513 128.429021 267.731694 286.86752 267.731694 158.440545 0 286.874683-119.874181 286.874683-267.731694h-95.620801c0 98.580203-85.634356 178.488137-191.253882 178.488137z m0 0"  horiz-adv-x="1024" />

    
    <glyph glyph-name="sanjiaoxing" unicode="&#58895;" d="M748.007 462.673L511.989 226.707 275.996 462.673H748.01z"  horiz-adv-x="1024" />

    
    <glyph glyph-name="jingqingqidaiicon" unicode="&#58914;" d="M45.511111-64.284444h864.711111v-45.511112H45.511111zM393.671111 663.893333c-6.826667-25.031111-36.408889-36.408889-36.408889-36.408889-11.377778-4.551111-18.204444-18.204444-13.653333-29.582222 4.551111-9.102222 11.377778-15.928889 20.48-15.928889 2.275556 0 4.551111 0 6.826667 2.275556 2.275556 0 52.337778 20.48 65.991111 65.991111 9.102222 31.857778-2.275556 68.266667-31.857778 104.675556-20.48 25.031111-29.582222 45.511111-25.031111 56.888888 4.551111 13.653333 25.031111 18.204444 31.857778 20.48 11.377778 2.275556 20.48 13.653333 18.204444 25.031112-2.275556 11.377778-13.653333 20.48-25.031111 18.204444-4.551111 0-52.337778-9.102222-68.266667-47.786667-11.377778-29.582222 0-63.715556 31.857778-102.4 13.653333-13.653333 29.582222-38.684444 25.031111-61.44zM621.226667 663.893333c-6.826667-25.031111-36.408889-36.408889-36.408889-36.408889-11.377778-4.551111-18.204444-18.204444-13.653334-29.582222 2.275556-9.102222 11.377778-15.928889 20.48-15.928889 2.275556 0 4.551111 0 6.826667 2.275556 2.275556 0 52.337778 20.48 65.991111 65.991111 9.102222 31.857778-2.275556 68.266667-31.857778 104.675556-20.48 25.031111-29.582222 45.511111-25.031111 56.888888 4.551111 13.653333 25.031111 18.204444 31.857778 20.48 11.377778 2.275556 20.48 13.653333 18.204445 25.031112-2.275556 11.377778-13.653333 20.48-25.031112 18.204444-4.551111 0-52.337778-9.102222-68.266666-47.786667-11.377778-29.582222 0-63.715556 31.857778-102.4 13.653333-13.653333 29.582222-38.684444 25.031111-61.44zM864.711111 538.737778H182.044444c-13.653333 0-22.755556-9.102222-22.755555-22.755556v-364.088889c0-63.715556 50.062222-113.777778 113.777778-113.777777h386.844444c63.715556 0 113.777778 50.062222 113.777778 113.777777v341.333334h91.022222c50.062222 0 91.022222-40.96 91.022222-91.022223s-40.96-91.022222-91.022222-91.022222h-4.551111c-13.653333 0-22.755556-11.377778-22.755556-22.755555s11.377778-22.755556 22.755556-22.755556H866.986667c75.093333 0 136.533333 61.44 136.533333 136.533333s-63.715556 136.533333-138.808889 136.533334z m-136.533333-386.844445c0-38.684444-29.582222-68.266667-68.266667-68.266666H273.066667c-38.684444 0-68.266667 29.582222-68.266667 68.266666v341.333334h523.377778v-341.333334z"  horiz-adv-x="1046" />

    
    <glyph glyph-name="tupian1" unicode="&#59003;" d="M871.537778 777.671111h-728.177778c-38.684444 0-68.266667-29.582222-68.266667-68.266667v-634.88c0-36.408889 29.582222-68.266667 68.266667-68.266666h728.177778c36.408889 0 68.266667 31.857778 68.266666 68.266666V709.404444c0 36.408889-29.582222 68.266667-68.266666 68.266667z m-573.44-116.053333c38.684444 0 72.817778-31.857778 72.817778-72.817778s-31.857778-72.817778-72.817778-72.817778c-38.684444 0-72.817778 31.857778-72.817778 72.817778s34.133333 72.817778 72.817778 72.817778z m-52.337778-552.96c-6.826667 0-13.653333 2.275556-20.48 6.826666-13.653333 11.377778-13.653333 27.306667-2.275556 40.96l141.084445 197.973334c11.377778 11.377778 27.306667 13.653333 40.96 4.551111l122.88-86.471111L748.657778 509.155556c11.377778 11.377778 65.991111 70.542222 97.848889 4.551111v-402.773334c0-2.275556-600.746667-2.275556-600.746667-2.275555z"  horiz-adv-x="1024" />

    
    <glyph glyph-name="shu" unicode="&#58911;" d="M650.705455-33.729939l-0.124122 670.378666c-5.802667 144.849455 61.533091 204.024242 183.389091 226.086788C927.868121 879.616 1024 884.363636 1133.226667 895.875879c0-278.652121-0.403394-791.893333-0.403394-791.893334l0.403394-66.125575s-246.784 19.238788-482.490182-71.586909z m-56.630303 0c-235.582061 90.856727-482.521212 71.586909-482.521213 71.68l0.434425 66.187636S111.58497 617.347879 111.58497 896c109.319758-11.636364 205.327515-16.384 299.194182-33.264485 121.762909-22.062545 189.222788-81.237333 183.38909-226.086788l-0.09309-670.378666z m79.747878-47.010909c169.146182 27.461818 339.99903 55.078788 526.987637 85.457454V770.172121h40.277333L1241.212121-28.299636c-0.930909-33.016242-36.584727-92.16-57.840485-93.246061l-477.21503-0.124121c-12.939636 0.279273-32.333576 40.96-32.333576 40.96z m-106.961454 0s-19.269818-40.649697-32.209455-41.053091l-474.825697 0.124121C38.570667-120.614788 0.930909-61.47103 0-28.392727V770.01697h42.263273v-765.300364c186.957576-30.502788 355.452121-57.995636 524.598303-85.457454z"  horiz-adv-x="1241" />

    
    <glyph glyph-name="gengduo" unicode="&#58903;" d="M140.032 152.96a32 32 0 1 1 39.936-49.92l320 256a32 32 0 0 1 0 49.92l-320 256a32 32 0 1 1-39.936-49.92L428.8 384l-288.768-231.04zM489.344 54.656a32 32 0 0 1 45.312-45.312l352 352a32 32 0 0 1 0 45.312l-352 352a32 32 0 1 1-45.312-45.312L818.752 384l-329.408-329.344z"  horiz-adv-x="1024" />

    
    <glyph glyph-name="zanting" unicode="&#58894;" d="M224 896a64 64 0 0 0 64-64v-896a64 64 0 0 0-128 0V832a64 64 0 0 0 64 64z m576 0a64 64 0 0 0 64-64v-896a64 64 0 0 0-128 0V832a64 64 0 0 0 64 64z"  horiz-adv-x="1024" />

    
    <glyph glyph-name="fangdajing" unicode="&#59057;" d="M1006.933333-51.2c17.066667-17.066667 17.066667-42.666667 0-59.733333-8.533333-17.066667-17.066667-17.066667-25.6-17.066667s-25.6 0-34.133333 8.533333L768 68.266667c-76.8-68.266667-179.2-110.933333-298.666667-110.933334C213.333333-42.666667 0 170.666667 0 426.666667S213.333333 896 469.333333 896 938.666667 691.2 938.666667 426.666667C938.666667 315.733333 896 213.333333 827.733333 128l179.2-179.2zM85.333333 426.666667C85.333333 213.333333 256 42.666667 469.333333 42.666667S853.333333 213.333333 853.333333 426.666667 682.666667 810.666667 469.333333 810.666667 85.333333 640 85.333333 426.666667zM640 469.333333c25.6 0 42.666667-17.066667 42.666667-42.666666s-17.066667-42.666667-42.666667-42.666667H512v-128c0-25.6-17.066667-42.666667-42.666667-42.666667S426.666667 230.4 426.666667 256V384H298.666667c-25.6 0-42.666667 17.066667-42.666667 42.666667s17.066667 42.666667 42.666667 42.666666H426.666667V597.333333c0 25.6 17.066667 42.666667 42.666666 42.666667s42.666667-17.066667 42.666667-42.666667V469.333333h128z"  horiz-adv-x="1024" />

    
    <glyph glyph-name="shexiangji" unicode="&#59018;" d="M229.700267 719.274667m-68.266667 0a68.266667 68.266667 0 1 1 136.533333 0 68.266667 68.266667 0 1 1-136.533333 0ZM972.8 528.315733l-180.923733-104.465066c-22.749867-13.141333-51.2 3.2768-51.2 29.559466v61.115734c0 37.546667-30.72 68.266667-68.266667 68.266666H68.266667c-37.546667 0-68.266667-30.72-68.266667-68.266666v-534.0672c0-37.546667 30.72-68.266667 68.266667-68.266667h604.142933c37.546667 0 68.266667 30.72 68.266667 68.266667v61.098666c0 26.282667 28.450133 42.7008 51.2 29.559467L972.8-33.3312c22.749867-13.141333 51.2 3.2768 51.2 29.559467V498.756267c0 26.2656-28.450133 42.7008-51.2 29.559466zM153.617067 377.941333a51.2 51.2 0 1 0 0 102.4 51.2 51.2 0 0 0 0-102.4zM476.040533 753.408m-102.4 0a102.4 102.4 0 1 1 204.8 0 102.4 102.4 0 1 1-204.8 0Z"  horiz-adv-x="1024" />

    
    <glyph glyph-name="xiayiye" unicode="&#58961;" d="M94.663111-112.412444a58.368 58.368 0 0 0-81.92 8.874666L15.473778 874.268444A58.140444 58.140444 0 0 0 97.052444 883.143111l561.607112-451.242667a58.026667 58.026667 0 0 0 0-90.680888L94.663111-112.412444zM967.111111 896a56.888889 56.888889 0 0 0 56.888889-56.888889v-907.946667a56.888889 56.888889 0 1 0-113.777778 0V839.111111a56.888889 56.888889 0 0 0 56.888889 56.888889z"  horiz-adv-x="1024" />

    
    <glyph glyph-name="login" unicode="&#58881;" d="M418.96448 27.893760000000043c0 24.21248-25.52832 20.95104-41.89696 20.95104H188.53888c-57.6 0-104.73472 47.1296-104.73472 104.73984v460.8512c0 57.60512 47.13472 104.73472 104.73472 104.73472h209.47456c29.4656 0 20.95104 44.50816 20.95104 62.83776 0 11.12576-9.81504 20.94592-20.95104 20.94592H188.53888c-104.08448 0-188.52864-84.44416-188.52864-188.52352v-460.85632c0-104.07936 84.44416-188.52864 188.52864-188.52864h209.47456c29.4656 0 20.95104 44.5184 20.95104 62.848z m607.48288 356.11136c0 11.12576-4.58752 21.60128-12.4416 29.46048l-356.11136 356.11136c-7.8592 7.85408-18.3296 12.43648-29.46048 12.43648-22.91712 0-41.90208-18.98496-41.90208-41.89696v-188.52864H293.28384c-22.91712 0-41.90208-18.98496-41.90208-41.89696v-251.38688c0-22.90688 18.98496-41.88672 41.90208-41.88672h293.25824v-188.53376c0-22.912 18.98496-41.89696 41.89696-41.89696 11.13088 0 21.61152 4.58752 29.46048 12.44672l356.11136 356.11136c7.84896 7.84896 12.43648 18.32448 12.43648 29.46048z"  horiz-adv-x="1026" />

    
    <glyph glyph-name="biyan" unicode="&#59276;" d="M1950.27955751 629.18273062a50.83049211 50.83049211 0 0 1-10.86121605 70.16345707 56.26110015 56.26110015 0 0 1-76.13712568-9.99231932c-2.71530401-2.49807968-304.54850202-330.61542112-663.51169757-330.61542112C851.77615124 358.73844725000004 536.25782065 689.35386836 533.54251661 691.85194804A58.65056734 58.65056734 0 0 1 457.40539096 696.84810802a48.11518745 48.11518745 0 0 1-5.43060804-70.16345708c5.43060803-7.49423902 70.70651763-75.05100391 173.99668348-150.21061971L487.38234767 343.74996921a45.83433213 45.83433213 0 0 1 2.71530465-70.16345644c5.43060803-9.99231869 19.00712813-14.98847868 32.58364823-14.98847868a56.47832449 56.47832449 0 0 1 38.12286875 14.98847868l149.55894731 142.82499255a1092.63834955 1092.63834955 0 0 1 247.41850514-117.73558334l-57.12999753-177.79810924c-8.14591207-27.58748887 8.14591207-55.17497842 38.12286878-62.66921742h16.29182472c24.43773618 0 46.26878081 14.98847868 51.69938887 37.57980821l57.02138503 177.79810925c43.5534768-7.49423902 89.82225826-12.49039835 135.98242658-12.49039901 46.26878081 0 92.42894978 4.99615934 135.98242723 12.49039901l57.12999688-175.30002957c5.43060803-22.48271767 29.86834485-37.57980821 51.69938952-37.57980822 5.43060803 0 10.86121609 0 13.57652008 2.49807967 29.86834485 7.6028515 46.26878081 35.08172854 38.01425628 62.66921743l-57.1299969 175.30002957a1100.34981292 1100.34981292 0 0 1 247.52711699 117.62697147l146.8436433-140.21830101a55.93526331 55.93526331 0 0 1 76.13712566 0c21.72243215 20.09324988 21.72243215 50.07020658 2.71530401 70.16345642l-138.69773123 132.72406203c111.43607792 75.15961579 176.7119875 147.82115254 176.71198749 147.82115253v-0.10861248z"  horiz-adv-x="2389" />

    
    <glyph glyph-name="yonghuming" unicode="&#58887;" d="M732.956879-4.350842H291.045167c-80.409354 0-135.032416 49.051159-135.032416 130.968867 0 114.292046 26.805506 289.745057 174.977174 289.745057 15.665795 0 81.920778-70.272483 181.009563-70.272483 99.095949 0 165.346839 70.272483 181.012634 70.272483 148.171668 0 174.974104-175.453011 174.974103-289.745057 0-81.917708-54.618968-130.968867-135.029346-130.968867zM511.999488 384.007163c-107.209744 0-194.178491 86.964654-194.178491 194.177468 0 107.186208 86.968747 194.166211 194.178491 194.166211 107.215884 0 194.181561-86.980004 194.181561-194.166211 0-107.212814-86.964654-194.177468-194.181561-194.177468z"  horiz-adv-x="1024" />

    
    <glyph glyph-name="shezhi" unicode="&#58949;" d="M906.24 451.584l-27.648 10.24c-24.576 8.192-45.056 26.624-55.296 51.2-10.24 23.552-10.24 51.2 0 74.752l12.288 26.624c10.24 21.504 5.12 46.08-11.264 62.464l-28.672 28.672c-16.384 16.384-41.984 20.48-62.464 11.264L706.56 704.512c-23.552-10.24-51.2-10.24-74.752 0-24.576 10.24-43.008 29.696-51.2 55.296l-6.144 24.576c-8.192 21.504-28.672 35.84-52.224 35.84h-40.96c-23.552 0-44.032-14.336-52.224-35.84l-10.24-27.648c-8.192-24.576-26.624-45.056-51.2-55.296-23.552-10.24-51.2-10.24-74.752 0L266.24 713.728c-21.504 10.24-46.08 5.12-62.464-11.264l-28.672-28.672c-16.384-16.384-21.504-40.96-11.264-62.464l12.288-26.624c10.24-23.552 10.24-51.2 0-74.752s-30.72-43.008-55.296-51.2l-27.648-10.24c-19.456-8.192-31.744-27.648-32.768-48.128v-40.96c0-23.552 15.36-44.032 36.864-51.2l27.648-10.24c24.576-8.192 45.056-26.624 55.296-51.2 10.24-23.552 10.24-51.2 0-74.752l-12.288-26.624c-10.24-21.504-5.12-46.08 11.264-62.464l28.672-28.672c16.384-16.384 41.984-20.48 62.464-11.264l26.624 12.288c23.552 10.24 51.2 10.24 74.752 0 24.576-10.24 43.008-29.696 51.2-55.296l10.24-27.648c8.192-21.504 28.672-35.84 52.224-35.84h40.96c23.552 0 44.032 14.336 52.224 35.84l10.24 26.624c8.192 24.576 27.648 45.056 52.224 55.296 23.552 10.24 50.176 10.24 73.728 0l26.624-12.288c21.504-10.24 46.08-5.12 62.464 11.264l28.672 28.672c16.384 16.384 21.504 40.96 11.264 62.464l-12.288 26.624c-10.24 23.552-10.24 50.176 0 73.728s30.72 43.008 55.296 51.2l27.648 10.24c19.456 10.24 30.72 30.72 28.672 52.224v40.96c0 23.552-14.336 44.032-36.864 52.224zM664.576 347.136C648.192 266.24 574.464 209.92 491.52 215.04c-82.944 5.12-148.48 70.656-153.6 153.6-5.12 81.92 51.2 155.648 132.096 172.032 54.272 11.264 109.568-6.144 149.504-45.056 38.912-38.912 56.32-94.208 45.056-148.48z m0 0"  horiz-adv-x="1024" />

    
    <glyph glyph-name="zuidahua_nor" unicode="&#59066;" d="M922.517 218.07299999999998v0.245l0.349 0.62 0.155-0.465z m-35.754 18.013v0.206l0.323 0.555 0.129-0.413z m0 0M379.44 274.21400000000006l0.117 0.323 0.258-0.439v-0.168zM404.963 287.014l0.09 0.297 0.232-0.387v-0.155z m0.348-0.245M194.372 838.298c-50.322 0-91.393-43.38-91.393-96.67V26.409999999999968c0-53.328 41.032-96.696 91.393-96.696h732.184c50.4 0 91.392 43.38 91.392 96.696V741.6279999999999c0 53.29-40.993 96.67-91.392 96.67z m732.184-966.285H194.372c-80.464 0-145.895 69.276-145.895 154.41V741.629C48.477 826.788 113.92 896 194.372 896h732.184c80.464 0 145.908-69.238 145.908-154.372V26.409999999999968c0-85.16-65.444-154.411-145.908-154.411z m31.767 882.982a28.593 28.593 0 0 0 2.258-11.096v-232.617a29.406 29.406 0 1 0-58.812 0V672.816L656.482 427.45a29.406 29.406 0 0 0-41.587 41.587l245.352 245.274h-161.52a29.406 29.406 0 0 0 0 58.8h232.539a21.806 21.806 0 0 0 3.445-0.672 28.98 28.98 0 0 0 7.742-1.574 29.51 29.51 0 0 0 15.935-15.935zM179.172 7.572000000000003a28.516 28.516 0 0 0-2.258 11.11l0.232 232.9a29.438 29.438 0 1 0 58.877 0.078l-0.142-161.74 245.08 245.158a29.411 29.411 0 1 0 41.561-41.625L277.364 48.29499999999996l161.779 0.219a29.438 29.438 0 0 0-0.065-58.877l-232.823-0.245a21.806 21.806 0 0 0-3.458 0.671 28.98 28.98 0 0 0-7.741 1.574 29.458 29.458 0 0 0-15.936 15.935z m0 0"  horiz-adv-x="1158" />

    
    <glyph glyph-name="chakan" unicode="&#59061;" d="M716.8-25.6c226.304 0 431.104 136.4992 614.4 409.6-183.296 273.1008-388.096 409.6-614.4 409.6S285.696 657.1008 102.4 384c183.296-273.1008 388.096-409.6 614.4-409.6z m0-102.4C452.096-128 218.112 27.9552 17.408 326.8608a102.4 102.4 0 0 0 0 114.2784C218.112 740.1472 452.096 896 716.8 896s498.688-155.9552 699.392-454.8608a102.4 102.4 0 0 0 0-114.2784C1215.488 27.8528 981.504-128 716.8-128z m0 307.2a204.8 204.8 0 1 1 0 409.6 204.8 204.8 0 0 1 0-409.6z m0-102.4a307.2 307.2 0 1 0 0 614.4 307.2 307.2 0 0 0 0-614.4z"  horiz-adv-x="1433" />

    
    <glyph glyph-name="yanzhengma" unicode="&#58978;" d="M512-1.706667c-58.026667 0-136.533333 40.96-204.8 105.813334-75.093333 71.68-119.466667 157.013333-119.466667 228.693333V636.586667c0 10.24 10.24 20.48 20.48 20.48H238.933333c3.413333 0 64.853333 3.413333 129.706667 27.306666 68.266667 27.306667 112.64 58.026667 112.64 61.44l17.066667 13.653334c3.413333 3.413333 6.826667 3.413333 13.653333 3.413333s6.826667 0 13.653333-3.413333l17.066667-13.653334c3.413333 0 44.373333-34.133333 112.64-61.44 64.853333-27.306667 126.293333-27.306667 129.706667-27.306666h30.72c10.24 0 20.48-10.24 20.48-20.48v-303.786667c0-75.093333-44.373333-157.013333-119.466667-228.693333-68.266667-64.853333-146.773333-105.813333-204.8-105.813334z m-283.306667 337.92c0-61.44 37.546667-136.533333 105.813334-201.386666 58.026667-58.026667 129.706667-95.573333 177.493333-95.573334s119.466667 37.546667 177.493333 95.573334c68.266667 64.853333 105.813333 136.533333 105.813334 201.386666V619.52H785.066667c-3.413333 0-75.093333 3.413333-143.36 30.72-71.68 27.306667-116.053333 61.44-122.88 64.853333l-6.826667 6.826667-6.826667-3.413333c-3.413333 0-47.786667-34.133333-122.88-64.853334-68.266667-30.72-139.946667-34.133333-143.36-34.133333h-10.24v-283.306667z m245.76-61.44c-6.826667 0-13.653333 3.413333-17.066666 6.826667l-92.16 92.16c-3.413333 3.413333-6.826667 10.24-6.826667 17.066667s3.413333 13.653333 6.826667 17.066666c3.413333 3.413333 10.24 6.826667 17.066666 6.826667s13.653333-3.413333 17.066667-6.826667l75.093333-75.093333 163.84 163.84c3.413333 3.413333 10.24 6.826667 17.066667 6.826667s13.653333-3.413333 17.066667-6.826667c10.24-10.24 10.24-23.893333 0-34.133333L491.52 281.6c-3.413333-3.413333-10.24-6.826667-17.066667-6.826667z"  horiz-adv-x="1024" />

    
    <glyph glyph-name="player3-back" unicode="&#58910;" d="M758.62703352 65.40276642000003c10.58693248-10.13593643 26.76126004-1.57710967 26.76126003 14.1618366l0 600.80889016c0 15.73986452-16.17432757 24.29960954-26.76126003 14.16183661l-313.73547428-300.40398551c-7.72572327-7.39689145-7.72572327-20.92678175 0-28.32459146L758.62703352 65.40276642000003zM311.51512902 124.80752822l-72.90342258 1e-8 0 510.32487626 72.90342259 0 0-510.32487626Z"  horiz-adv-x="1024" />

    
    <glyph glyph-name="caidan-" unicode="&#58915;" d="M834.5 671.7H183.4c-30 0-54.5-24.6-54.5-54.5 0-30 24.6-54.5 54.5-54.5h651.1c30 0 54.5 24.6 54.5 54.5 0 30-24.6 54.5-54.5 54.5z m-0.9-488.5H182.5c-30 0-54.5-24.6-54.5-54.5 0-30 24.6-54.5 54.5-54.5h651.1c30 0 54.5 24.6 54.5 54.5 0 30-24.4 54.5-54.5 54.5z m0.3 245.5H182.8c-30 0-54.5-24.6-54.5-54.5 0-30 24.6-54.5 54.5-54.5h651.1c30 0 54.5 24.6 54.5 54.5s-24.6 54.5-54.5 54.5z"  horiz-adv-x="1024" />

    
    <glyph glyph-name="shipinzanting" unicode="&#58898;" d="M517.12 896C232.96 896 5.12 668.16 5.12 384s227.84-512 512-512 512 227.84 512 512S801.28 896 517.12 896zM465.92 179.2H373.76V588.8h92.16v-409.6z m194.56 0h-92.16V588.8h92.16v-409.6z"  horiz-adv-x="1029" />

    
    <glyph glyph-name="VIP" unicode="&#58882;" d="M605.693 28.16300000000001h-63.715v304.621h63.715v-304.621M881.428 176.34799999999996c-16.991-25.486-43.449-38.108-79.493-38.108h-73.06v-110.077h-63.715v304.621h139.325c29.491 0 52.671-8.738 69.42-26.093 16.869-17.355 25.244-41.142 25.244-71.483 0.122-21.36-5.825-41.021-17.718-58.861M186.383 28.16300000000001v648.685c0 2.67-2.185 4.854-4.854 4.854h-49.637c-2.67 0-4.854 2.185-4.854 4.854v49.759c0 2.67 2.185 4.854 4.854 4.854h227.92c2.67 0 4.854-2.185 4.854-4.854v-292.242l297.703 295.641c0.85 0.85 2.185 1.456 3.398 1.456h221.972c4.369 0 6.432-5.219 3.398-8.253l-704.754-704.754M822.446 270.404c-8.738 6.432-23.059 9.709-42.962 9.709h-50.608v-89.202h59.104c20.389 0 34.224 6.19 41.628 18.569 4.005 6.796 5.947 16.384 5.947 28.763 0 14.928-4.369 25.607-13.107 32.161M822.446 270.404z"  horiz-adv-x="1024" />

    
    <glyph glyph-name="fenxiaosousuo" unicode="&#58905;" d="M914.285714 109.714286a17.188571 17.188571 0 0 0-12.8 5.485714l-152.868571 152.502857a18.285714 18.285714 0 0 0 25.965714 25.965714l152.502857-152.868571a17.554286 17.554286 0 0 0 0-25.6 17.188571 17.188571 0 0 0-12.8-5.485714zM365.714286 475.428571H109.714286a18.285714 18.285714 0 0 0 0 36.571429h256a18.285714 18.285714 0 0 0 0-36.571429zM365.714286 256H109.714286a18.285714 18.285714 0 0 0 0 36.571429h256a18.285714 18.285714 0 0 0 0-36.571429zM658.285714 36.571429H109.714286a18.285714 18.285714 0 0 0 0 36.571428h548.571428a18.285714 18.285714 0 0 0 0-36.571428zM658.285714 694.857143H109.714286a18.285714 18.285714 0 0 0 0 36.571428h548.571428a18.285714 18.285714 0 0 0 0-36.571428zM658.285714 219.428571a164.571429 164.571429 0 1 0 164.571429 164.571429 164.937143 164.937143 0 0 0-164.571429-164.571429z m0 292.571429a128 128 0 1 1 128-128 128 128 0 0 1-128 128z"  horiz-adv-x="1024" />

    
    <glyph glyph-name="youxiang1" unicode="&#58921;" d="M204.8 53.3504a108.8 108.8 0 0 0-108.8 108.8V605.8496c0 60.1088 48.6912 108.8 108.8 108.8h614.4c60.1088 0 108.8-48.6912 108.8-108.8v-443.6992A108.8 108.8 0 0 0 819.2 53.3504H204.8z m0 64h614.4a44.8 44.8 0 0 1 44.8 44.8V605.8496A44.8 44.8 0 0 1 819.2 650.6496H204.8a44.8 44.8 0 0 1-44.8-44.8v-443.6992c0-24.7808 20.0704-44.8 44.8-44.8zM139.5712 508.8256a32 32 0 1 0 28.0576 57.5488l335.9744-163.9936c5.2736-2.56 11.52-2.56 16.7936 0l335.9744 163.9936a32 32 0 1 0 28.0576-57.5488l-335.9232-163.9424c-23.04-11.264-49.9712-11.264-73.0112 0L139.5712 508.8256z"  horiz-adv-x="1024" />

    
    <glyph glyph-name="paixu" unicode="&#58931;" d="M884.363 337.466H139.636c-51.205 0-63.477-29.636-27.272-65.863L446.182-62.17c36.205-36.228 95.432-36.228 131.637 0l333.818 333.772c36.204 36.228 23.931 65.864-27.274 65.864zM139.636 430.557h744.727c51.205 0 63.478 29.614 27.273 65.818L577.818 830.171c-36.205 36.205-95.432 36.205-131.637 0L112.364 496.375c-36.205-36.204-23.932-65.818 27.272-65.818z"  horiz-adv-x="1024" />

    
    <glyph glyph-name="guanbi" unicode="&#58946;" d="M963.328-106.818954a37.628062 37.628062 0 0 0-26.596431 11.0336L30.814523 810.131692c-14.686523 14.686523-14.686523 38.5024 0 53.190893 14.686523 14.686523 38.5024 14.686523 53.190892 0l905.991877-905.999754a37.696985 37.696985 0 0 0 7.936-40.912739 37.691077 37.691077 0 0 0-34.605292-23.229046M57.407015-106.818954a37.5552 37.5552 0 0 0-34.857353 23.181785 37.537477 37.537477 0 0 0 8.264861 41.034831L936.816246 863.320615c14.865723 13.520738 37.738338 12.973292 51.936492-1.248492 14.202092-14.219815 14.716062-37.0944 1.169724-51.9424L84.005415-95.787323a37.578831 37.578831 0 0 0-26.5984-11.031631"  horiz-adv-x="1024" />

    
    <glyph glyph-name="shouye" unicode="&#58893;" d="M948.16 490.368L531.776 823.552a31.552 31.552 0 0 1-39.552 0L75.84 490.368a31.616 31.616 0 0 1 19.776-56.32H160v-469.568c0-15.744 12.736-28.48 28.48-28.48H492.8v256a83.2 83.2 0 1 0 166.4 0v-256h176.32a28.48 28.48 0 0 1 28.48 28.48V434.048h64.384a31.616 31.616 0 0 1 19.776 56.32z"  horiz-adv-x="1024" />

    
    <glyph glyph-name="yanzhengma1" unicode="&#58962;" d="M174.158769 173.134769v52.932923h77.587693V536.103385L165.494154 506.801231l-4.332308 55.138461 120.595692 41.432616h28.514462v-377.304616h62.779077v-52.932923H174.08z m353.122462 237.883077c-12.839385 16.541538-19.377231 39.384615-19.377231 65.220923 0 72.940308 56.398769 127.133538 138.476308 127.133539 81.132308 0 139.027692-49.388308 139.027692-130.756923 0-60.652308-29.223385-105.156923-96.177231-162.973539-23.552-19.849846-56.477538-51.357538-85.543384-83.574154h188.258461v-52.932923H505.147077v28.750769a2535.424 2535.424 0 0 0 149.188923 150.764308c50.569846 45.686154 71.364923 79.872 71.364923 119.335385 0 46.946462-31.507692 77.036308-80.108308 77.036307-48.364308 0-77.666462-30.562462-77.666461-68.52923 0-16.541538 5.041231-32.295385 15.753846-48.443077l-56.32-20.952616z m447.409231-130.599384c23.000615-40.014769 51.987692-62.227692 90.584615-62.227693 49.860923 0 84.283077 32.295385 84.283077 79.399385 0 46.316308-27.332923 70.892308-71.522462 70.892308h-30.562461V421.021538h29.932307c37.257846 0 60.731077 20.007385 60.731077 62.936616 0 39.936-28.514462 64.827077-70.734769 64.827077-36.233846 0-64.827077-21.346462-86.961231-66.244923l-47.812923 29.223384c27.884308 58.525538 74.200615 91.529846 134.695385 91.529846 78.611692 0 130.520615-44.583385 130.520615-115.160615 0-43.638154-20.558769-73.491692-56.871384-93.577846 42.614154-16.541538 68.529231-48.443077 68.52923-97.988923 0-81.368615-59.313231-132.883692-145.644307-132.883692-64.196923 0-108.465231 30.72-137.609846 80.896l48.443077 35.76123zM114.530462-127.921231C51.436308-127.921231 0.078769-76.484923 0.078769-13.233231a35.209846 35.209846 0 0 0 70.262154 0c0-24.418462 19.849846-44.347077 44.110769-44.347077h1109.937231c24.418462 0 44.189538 19.849846 44.189539 44.347077a35.052308 35.052308 0 0 0 70.340923 0c0-63.251692-51.357538-114.688-114.530462-114.688H114.530462z m933.494153 305.939693c-51.278769 0-90.269538 20.637538-118.626461 63.015384l25.521231 18.825846c25.363692-37.572923 56.398769-55.926154 94.523077-55.926154 57.974154 0 98.461538 38.596923 98.461538 93.735385 0 53.169231-32.059077 84.992-85.700923 84.992h-16.384V406.843077h15.753846c46.867692 0 74.909538 28.829538 74.909539 77.193846 0 47.261538-34.107077 79.084308-84.913231 79.084308-37.809231 0-68.844308-20.401231-92.396308-60.573539l-23.709538 14.572308c26.230154 47.261538 66.166154 72.073846 116.027077 72.073846 71.758769 0 116.342154-38.675692 116.342153-100.982154 0-36.627692-15.753846-62.385231-49.624615-81.132307l-26.545231-14.729847 28.356923-11.027692c39.384615-15.202462 59.470769-43.716923 59.47077-84.676923 0-72.073846-51.593846-118.626462-131.465847-118.626461zM503.414154 187.313231v9.058461c41.432615 45.686154 97.673846 102.4 144.620308 145.723077 53.878154 48.836923 75.933538 86.488615 75.933538 129.890462 0 54.587077-37.888 91.214769-94.286769 91.214769-53.248 0-91.844923-34.816-91.844923-82.707692 0-14.099692 3.072-27.569231 9.373538-40.96l-30.168615-11.185231a99.249231 99.249231 0 0 0-10.791385 47.891692c0 66.481231 51.121231 112.955077 124.297846 112.955077 75.854769 0 124.849231-45.764923 124.849231-116.578461 0-53.563077-24.733538-94.838154-91.372308-152.182154-20.873846-17.723077-54.744615-49.388308-86.724923-84.834462l-21.42523-23.709538h206.060307v-24.576H503.414154z m-330.988308 0v24.576h77.745231V555.874462l-87.906462-29.77477-1.96923 25.993846 107.913846 37.100308h11.972923v-377.304615h62.700308v-24.576H172.425846zM1303.709538 745.314462a35.052308 35.052308 0 0 0-35.052307 35.052307 44.425846 44.425846 0 0 1-44.110769 44.504616H114.451692c-24.418462 0-44.189538-20.007385-44.189538-44.504616a35.052308 35.052308 0 0 0-70.262154 0C0.078769 843.697231 51.436308 895.212308 114.530462 895.212308h1109.858461c63.172923 0 114.530462-51.515077 114.530462-114.845539 0-19.377231-15.753846-35.052308-35.052308-35.052307h-0.236308z"  horiz-adv-x="1339" />

    
    <glyph glyph-name="youjianfasongchenggong" unicode="&#59171;" d="M1120.117791 298.35255600000005c-17.17137 17.17137-44.603681 17.17137-61.775051 0L814.174233 54.18404899999996l-105.331697 105.331697c-17.17137 17.17137-44.603681 17.17137-61.775051 0s-17.17137-44.603681 0-61.775051l135.905112-135.905112c8.585685-8.585685 19.893661-12.773824 31.201636-12.773824 11.307975-0.209407 22.615951 4.188139 31.201636 12.773824l274.741922 274.741922c16.961963 16.961963 16.961963 44.603681 0 61.775051z m0 0M104.703476 108.00163599999996c-11.307975 0-20.940695 9.63272-20.940695 20.940695V572.4662579999999L487.9182 353.635992c6.910429-4.606953 15.286708-7.119836 23.662986-7.119837 0-0.209407 0-0.209407 0.209407-0.209407 8.376278 0 16.543149 2.512883 23.662986 7.119837l403.946012 219.039673v-253.59182l83.762781 83.762781V715.072393c0 57.586912-47.116564 104.703476-104.703476 104.703476H104.703476c-57.586912 0-104.703476-47.116564-104.703476-104.703476v-586.548876c0-57.586912 47.116564-104.703476 104.703476-104.703476h488.127608L508.858896 107.79222900000002l-404.15542 0.209407z m-20.940695 607.280164c0 11.307975 9.63272 20.940695 20.940695 20.940695h813.75542c11.307975 0 20.940695-9.63272 20.940695-20.940695v-47.744786L511.581186 435.932924 83.762781 667.537014V715.2818z m0 0"  horiz-adv-x="1132" />

    
    <glyph glyph-name="renwu1" unicode="&#58952;" d="M128 896h64v-128a64 64 0 0 1 64-64h512a64 64 0 0 1 64 64V896h64a128 128 0 0 0 128-128v-768a128 128 0 0 0-128-128H128a128 128 0 0 0-128 128V768a128 128 0 0 0 128 128z m641.152-355.776l-303.936-303.936-175.872 205.184-72.896-62.464 243.328-283.904 377.216 377.216-67.84 67.904zM768 896v-64a64 64 0 0 0-64-64H320a64 64 0 0 0-64 64V896h512z"  horiz-adv-x="1024" />

    
    <glyph glyph-name="bofangliebiao" unicode="&#58951;" d="M0 668.444444c0 28.444444 22.755556 56.888889 45.511111 56.888889h534.755556c22.755556 0 45.511111-28.444444 45.511111-56.888889 0-34.133333-22.755556-56.888889-45.511111-56.888888H45.511111C22.755556 611.555556 0 634.311111 0 668.444444m0-227.555555c0 28.444444 22.755556 56.888889 45.511111 56.888889h534.755556c22.755556 0 45.511111-28.444444 45.511111-56.888889 0-34.133333-22.755556-56.888889-45.511111-56.888889H45.511111C22.755556 384 0 406.755556 0 440.888889m0-227.555556c0 28.444444 22.755556 56.888889 51.2 56.888889h295.822222c28.444444 0 51.2-28.444444 51.2-56.888889 0-34.133333-22.755556-56.888889-51.2-56.888889H51.2c-28.444444 0-51.2 22.755556-51.2 56.888889m739.555556 5.688889V850.488889c0 22.755556 22.755556 45.511111 45.511111 45.511111h187.733333c28.444444 0 51.2-22.755556 51.2-45.511111 0-28.444444-22.755556-45.511111-45.511111-45.511111h-142.222222v-750.933334c0-102.4-85.333333-182.044444-187.733334-182.044444-102.4 0-187.733333 85.333333-187.733333 187.733333s85.333333 187.733333 187.733333 187.733334c28.444444-5.688889 62.577778-11.377778 91.022223-28.444445"  horiz-adv-x="1024" />

    


  </font>
</defs>
</svg>
